<svg xmlns="http://www.w3.org/2000/svg" width="163" height="163" viewBox="0 0 163 163"><path d="M34.4 61.2c-1 0-2 .7-2 1.8 0 1 1 2 2 2s1.8-1 2-2c0-1-1-1.8-2-1.8z" class="st0"/><path d="M143 0H20C9 0 0 9 0 20v123c0 11 9 20 20 20h123c11 0 20-9 20-20V20c0-11-9-20-20-20zm-14.6 94.3c-1.2 2-3 3.6-4.6 5.2-2.6 2.3-5.7 3-8.8 2.8-2.6 0-4.8 0-7-.8-4.3-1.5-6.7-4.7-7.7-9.2-.7-3-.6-6 .4-8.7 1.2-3.3 3.7-5.3 7-6.3 2.7-.8 5.5-1 8.4-.4 1.7 0 3 1 4.4 2 1 .7 2 .7 2.6 0 .5-.6 0-1.6-1-2.3-7.7-4.5-19-3.8-25 5.8-1 1.8-2 3.6-2.7 5.5-2.4 6.7-7.3 11-13.5 13.7-1 .4-1.7.6-2.7.5H50c-1 0-1 0-.8-1.2.2-1.2 1-2 2.2-2.3 2-.5 3.7-.3 5.5-.3.3 0 .8 0 1-.5 0-.6 0-1-.5-1.5C51.7 92.2 51 85 56.7 80c4.4-3.8 10.5-4.4 15.5-1.7.8.5 1.7 1 2.6 1 .4.2 1 .2 1.2 0 .4-.5.3-1 0-1.5-.3-1-1-1.5-2-2-1.8-1-3.7-1.6-5.7-1.8-4-.3-7.7 0-11 2.4-1.4.8-2.4 2-3.4 3-2.7 2.5-5.8 4-9.5 4-1.8 0-3.4-.7-4.8-1.8-1.4-1-2.7-2.3-4-3.4-1.2-1-2.5-1.7-4.3-1.5-1.2.2-2.6.3-4 0-1.2 0-1.6-1-.8-2 1-1.6 2.6-2.3 4.5-2.4L39 72c4.4-.4 8.2-5.2 8-8.6v-.8c-.3-.6-.5-1-1.3-1-.7 0-1 .5-1 1-.2 4.4-3 6.7-7 7.4-2.8.5-5.7.4-8.5-.2-2-.4-3.2-2.3-2.5-4.5 1.3-3.7 3-7 6.2-9.8 1.2-1 2.7-1.6 4.3-1.8 1 0 1.3-.5 1.4-1.4.3-2 1.5-3 3.3-3.8.8-.3 1.3 0 1.8.5l1.4 2.4C46 54 48.2 56 50.4 58c2 1.8 4.4 2 7 2 3.6.2 7.3.3 11 1 6 1.3 11 4.3 14.2 10 1 1.8 1.5 3.8 1.6 6 .3 4.7-.6 9-3 13.2-.4.6-.5 1.4 0 2 .2.6.7.7 1.3.6.6 0 1-.5 1.3-1 2.3-4.7 3.6-9.5 2.5-14.8-1-4-1-8.2.3-12.3 1.2-3.5 3.6-6 6.7-8 5.8-3.2 12-5 18.5-3.7 8 1.5 14.3 5.8 17.7 13.3 4.3 9.5 4.4 19-1.3 28z" class="st0"/></svg>
