<svg xmlns="http://www.w3.org/2000/svg" width="889.3" height="567.1" viewBox="0 0 889.3 567.1"><path d="M369.3 472.3s9.2 58-54.2 58H101s-44-4.8-44-44V301s-3-67 67-67 68.3 68.3 68.3 68.3v46.5s-4.2 47.3 47.3 47.3h135.3V230.2s4.5-57.5-57.6-57.5h-58s-63.4-3-63.4-63.3v-74s-3.3-33 33-33H395s43.8-.7 43.8 44v305.4h100.5V154.4S524.6 76 617.8 76h149s67.5-1 67.5 67.5v22.7s-3.3 68-68 68h-46s-64.3-6.5-64.3 64.4c0 70.8-92 72-92 72V411h98s52.7 8 52.7-52.4V323s.6-42 42-42H798s34.2 1.3 34.2 34v189.7s.6 60-60 60H573.7s-38-1-38-38v-66.4" class="api-path"/><path fill="#EFEFEF" d="M475 480.4H420.5s1.8 30.5-2.3 35l26 .4h7.6l25.8-.5c-4-4.4-2.3-35-2.3-35zM205 113.4h-22.5s.6 12.7-1 14.5H206c-1.7-2-1-14.6-1-14.6zM701.3 113.4h-22.6s.7 12.6-1 14.5H702.3c-1.7-2-1-14.6-1-14.6zM843.8 438.6h-22.6s.7 12.6-1 14.5l10.7.2h13.9c-1.8-2-1-14.6-1-14.6z"/><linearGradient id="a" x1="417" x2="417" y1="515.8" y2="515.3" gradientUnits="userSpaceOnUse"><stop offset="0" stop-opacity=".6"/><stop offset=".1" stop-opacity=".5"/><stop offset="1" stop-opacity="0"/></linearGradient><path fill="url(#a)" d="M418.2 515.3h-2.4c1 .8 1.7.7 2.4 0z"/><linearGradient id="b" x1="447.8" x2="447.8" y1="515.8" y2="480.4" gradientUnits="userSpaceOnUse"><stop offset="0" stop-opacity=".6"/><stop offset=".1" stop-opacity=".5"/><stop offset="1" stop-opacity="0"/></linearGradient><path fill="url(#b)" d="M475 480.4h-54.6s2 30.5-2.2 35l25.8.3h7.6l25.8-.4c-4-4.4-2.3-35-2.3-35z"/><linearGradient id="c" x1="478.6" x2="478.6" y1="515.8" y2="515.3" gradientUnits="userSpaceOnUse"><stop offset="0" stop-opacity=".6"/><stop offset=".1" stop-opacity=".5"/><stop offset="1" stop-opacity="0"/></linearGradient><path fill="url(#c)" d="M477.4 515.3c.7.7 1.5.8 2.4 0h-2.4z"/><path fill="#FFF" d="M584.7 478.6c0 3.4-2.7 6-6 6H317.5c-3.3 0-6-2.6-6-6V303c0-3.4 2.7-6 6-6h261.2c3.3 0 6 2.6 6 6v175.6z"/><path fill="#E15927" d="M584.7 303c0-3.4-2.7-6-6-6H317.5c-3.3 0-6 2.6-6 6v157h273.2V303z"/><path fill="#DCDDDD" d="M317.5 484.7h261.2c3.3 0 6-2.7 6-6v-18.8H311.5v18.6c0 3.4 2.7 6 6 6z"/><path fill="#FFF" d="M323 307.6h250.6v141.6H323z"/><g class="api-sqirl"><g fill="#E15927"><path d="M433.8 399.7c6 0 10.7 3.7 12 9.5 1 5-1.5 10.4-6 12.8-.4.2-1 .2-1 .6 0 .4.5.6.8.8 1.4 1 2.7.3 4-.4 1.4-.8 1.4-.8 2.2.6 0 .2 0 .3.2.4 1.2 2 1.2 2-1 3.3-4.4 2.5-8.7 1.3-11.3-3.3-.4-.5-.7-.6-1.3-.7-4.7-.6-8.2-3-10-7.8-2.7-8 3-15.8 11.4-15.8m-6 11.8c0 3.7 2.7 6.7 6 6.7 3.4 0 6-3 6-6.7s-2.6-6.6-6-6.6c-3.3-.2-6 2.8-6 6.5M496.7 418.2c0-.7-.2-1-.8-1-2.5.2-5 0-7.2.2-1 0-1.4-.3-1.4-1.4v-15.2c0-.8-.2-1-1-1h-4c-1 0-1 .2-1 1v20.8c0 .7.2 1 1 1h13.4c.8 0 1-.3 1-1v-3.3M454.6 400.5c0-.6 0-.8-.7-.7h-4.4c-.7 0-1 0-1 1v20.8c0 .8.3 1 1 1h4.2c.6 0 .8-.2.8-1v-21M478.3 421.6c-1.2-1.8-2.2-3.7-3.5-5.4-.6-1-.6-1.5.3-2h.2l.3-.3.8-1c2.4-2.8 2.3-8 0-10.4-.2 0-.3-.2-.3-.3l-.4-.3-.2-.2c-1.3-1.2-3-1.7-4.7-2-3.7-.2-7.5 0-11.3 0-.6 0-.7.2-.7.8v21c0 1 .4.8 1.4.8h3.6c.8 0 1 0 1-.7v-3.5c0-2 0-2 2-2 1.5-.2 2.6 0 3 1.8l2.3 4.2v-.2.2c0 .3.4.2.8.2h5c.8 0 1 0 .5-.8m-8.7-10.3c-1.4.3-3 0-4.5 0-.4 0-.4-.2-.4-.6v-4-1.5c0-.5.2-.7.7-.7h3.8c2.3.2 3.3 1.3 3.4 3.5 0 1.6-1.2 3-2.8 3.3M411.5 422.5c-3.5 0-6.7-1-9.5-3-.6-.5-.7-.8-.3-1.4l1.5-3c.3-.6.5-.6 1-.2 2 1.5 4.3 2.6 6.8 2.8.7 0 1.4 0 2-.2.7-.2 1.2-.6 1.2-1.3 0-.6 0-1-.7-1.5-1-.7-2.3-1-3.5-1.3-1.3-.4-2.6-.7-3.8-1.3-2.2-1-3.5-2.8-3.5-5.3 0-2.4 1-4.3 3-5.5 2.7-1.5 5.6-1.6 8.5-1.2 2 .3 3.8 1 5.5 2 .6.2.7.5.4 1l-1.4 3.3c-.3.6-.5.6-1 .3-2-1-3.8-1.8-6-2h-1.3c-.7.2-1.2.4-1.4 1-.3 1 0 1.5.7 2l2.4.8c1.5.4 3 .8 4.3 1.4 2.5 1 4.2 2.8 4.2 5.8 0 2.7-1.5 4.8-4.2 6-1.6.6-3.2.8-4.8 1"/></g><g fill="#E15927"><path d="M485.3 392.3c-2.7 0-5 0-7.4-1-4.8-1.5-7.3-5-8.3-9.6-.8-3.2-.7-6.4.4-9.4 1.4-3.4 4-5.5 7.5-6.6 3-1 6-1 9-.5 1.6.3 3 1.2 4.5 2.2 1 .8 2.3.8 2.8.2.5-.7 0-1.8-1.2-2.6-8-4.8-20.2-4-26.5 6.2-1 2-2 3.8-2.8 6-2.5 7-7.7 11.4-14.3 14.4-1 .5-2 .6-3 .6h-29.8c-1.3 0-1.3 0-1-1.3.3-1.4 1-2.2 2.4-2.5 2-.5 4-.4 6-.4.3 0 .8.3 1-.4 0-.6 0-1-.5-1.4-6-4.7-7-12.4-.7-17.7 4.6-4 11-4.6 16.5-1.7.8.5 1.7 1 2.7 1 .4.2 1 .3 1.3 0 .4-.6.3-1 0-1.6-.4-1-1.2-1.6-2-2-2-1.3-4-1.8-6.2-2-4.2-.4-8.2 0-12 2.5l-3.4 3.2c-2.8 2.6-6 4.2-10 4-2 0-3.6-.6-5-1.8-1.5-1-3-2.4-4.3-3.6-1.4-1-2.8-1.8-4.7-1.5-1.3.3-2.7.4-4 .2-1.6-.2-2-1.2-1-2.4 1-1.6 2.7-2.3 4.7-2.4 2.7-.3 5.4-.3 8-.4 4.8-.3 9-5.5 8.6-9v-1c-.2-.6-.5-1.2-1.2-1-.8 0-1 .5-1 1.2-.3 4.6-3.5 7-7.5 7.7-3.2.5-6.2.3-9.3-.3-2-.4-3.4-2.5-2.6-4.8 1.5-4 3.4-7.7 6.7-10.5 1.3-1.2 3-1.7 4.6-2 1 0 1.3-.5 1.5-1.4.3-2 1.6-3.2 3.5-4 .8-.3 1.4 0 1.8.6.7.8 1.2 1.7 1.6 2.5 1.5 3 3.7 5 6 7.2 2 1.8 4.7 2 7.4 2 4 .3 7.8.4 11.7 1.2 6.5 1.3 11.8 4.5 15.2 10.5 1 2 1.5 4 1.6 6.4.3 5-.6 9.6-3.2 14-.4.7-.6 1.5 0 2.3.2.5.8.6 1.4.5.6 0 1-.6 1.3-1 2.8-5 4-10.2 3-16-1-4.2-1-8.6.3-13 1.2-3.7 3.8-6.4 7-8.4 6.2-3.5 12.8-5.3 19.8-4 8.6 1.6 15.4 6 19 14.2 4.5 10 4.7 20-1.4 29.8-1.3 2-3 3.8-5 5.5-2.7 2.5-6 3.2-9.3 3m-86-39.8c1.2 0 2.2-1 2.2-2s-1-2-2-2-2 .8-2 2c0 1 .8 2 2 2M476 402.6"/></g></g><circle cx="448" cy="468.9" r="3.9" fill="#9FA0A0"/><path fill="#DCDDDD" d="M403.2 514h88.5v3.8h-88.5z"/><g fill="#FFF" opacity=".3"><path d="M584.7 478.6V303c0-3.4-2.7-6-6-6H395l146.5 187.7h37.2c3.3 0 6-2.7 6-6z"/><path d="M584.7 478.6V303c0-3.4-2.7-6-6-6H395l146.5 187.7h37.2c3.3 0 6-2.7 6-6z" opacity=".1"/></g><linearGradient id="d" x1="819.7" x2="819.7" y1="453.3" y2="453" gradientUnits="userSpaceOnUse"><stop offset="0" stop-opacity=".6"/><stop offset=".1" stop-opacity=".5"/><stop offset="1" stop-opacity="0"/></linearGradient><path fill="url(#d)" d="M820.2 453h-1c.4.4.7.3 1 0z"/><linearGradient id="e" x1="832.5" x2="832.5" y1="453.3" y2="438.6" gradientUnits="userSpaceOnUse"><stop offset="0" stop-opacity=".6"/><stop offset=".1" stop-opacity=".5"/><stop offset="1" stop-opacity="0"/></linearGradient><path fill="url(#e)" d="M843.8 438.6h-22.6s.7 12.6-1 14.5l10.7.2h13.9c-1.8-2-1-14.6-1-14.6z"/><linearGradient id="f" x1="845.3" x2="845.3" y1="453.3" y2="453" gradientUnits="userSpaceOnUse"><stop offset="0" stop-opacity=".6"/><stop offset=".1" stop-opacity=".5"/><stop offset="1" stop-opacity="0"/></linearGradient><path fill="url(#f)" d="M844.8 453c.2.3.6.4 1 0h-1z"/><path fill="#FFF" d="M889.3 437.8c0 1.4-1 2.5-2.5 2.5H778.4c-1.4 0-2.5-1-2.5-2.5v-73c0-1.3 1-2.4 2.4-2.4h108.4c1.4 0 2.5 1 2.5 2.5v72.8z"/><g><path fill="#000" d="M889.3 365c0-1.5-1-2.6-2.5-2.6H778.4c-1.4 0-2.5 1-2.5 2.5v65h113.3v-65z"/><path fill="#DCDDDD" d="M778.4 440.3h108.4c1.4 0 2.5-1 2.5-2.5V430H776v7.8c0 1.4 1 2.5 2.4 2.5z"/></g><path fill="#70C090" d="M780.7 366.8h104v58.8h-104z"/><circle cx="832.5" cy="433.8" r="1.6" fill="#9FA0A0"/><path fill="#DCDDDD" d="M814 452.5h36.7v1.6H814z"/><g fill="#FFF" opacity=".3"><path d="M889.3 437.8v-73c0-1.3-1-2.4-2.5-2.4h-76.3l60.8 78h15.5c1.4 0 2.5-1.2 2.5-2.6z"/><path d="M889.3 437.8v-73c0-1.3-1-2.4-2.5-2.4h-76.3l60.8 78h15.5c1.4 0 2.5-1.2 2.5-2.6z" opacity=".1"/></g><g><linearGradient id="g" x1="677.2" x2="677.2" y1="127.8" y2="127.5" gradientUnits="userSpaceOnUse"><stop offset="0" stop-opacity=".6"/><stop offset=".1" stop-opacity=".5"/><stop offset="1" stop-opacity="0"/></linearGradient><path fill="url(#g)" d="M677.7 127.6h-1c.4.3.7.2 1 0z"/><linearGradient id="h" x1="690" x2="690" y1="127.8" y2="113.1" gradientUnits="userSpaceOnUse"><stop offset="0" stop-opacity=".6"/><stop offset=".1" stop-opacity=".5"/><stop offset="1" stop-opacity="0"/></linearGradient><path fill="url(#h)" d="M701.3 113h-22.6s.7 12.7-1 14.6h10.7v.2h3.2l10.7-.2c-1.7-2-1-14.5-1-14.5z"/><linearGradient id="i" x1="702.8" x2="702.8" y1="127.8" y2="127.5" gradientUnits="userSpaceOnUse"><stop offset="0" stop-opacity=".6"/><stop offset=".1" stop-opacity=".5"/><stop offset="1" stop-opacity="0"/></linearGradient><path fill="url(#i)" d="M702.3 127.6c.2.2.6.3 1 0h-1z"/><path fill="#FFF" d="M746.8 112.3c0 1.4-1 2.5-2.5 2.5H636c-1.5 0-2.6-1-2.6-2.5v-73c0-1.3 1-2.4 2.5-2.4h108.3c1.4 0 2.5 1 2.5 2.4v73z"/><g><path fill="#000" d="M746.8 39.4c0-1.4-1-2.5-2.5-2.5H636c-1.5 0-2.6 1-2.6 2.4v65.2h113.4V39.4z"/><path fill="#DCDDDD" d="M636 114.8h108.3c1.4 0 2.5-1 2.5-2.5v-7.7H633.4v7.7c0 1.4 1 2.5 2.5 2.5z"/></g><path fill="#C59C62" d="M638.2 41.4h104v58.8h-104z"/><circle cx="690.1" cy="108.3" r="1.6" fill="#9FA0A0"/><path fill="#DCDDDD" d="M671.5 127h36.7v1.6h-36.7z"/><g fill="#FFF" opacity=".3"><path d="M746.8 112.3v-73c0-1.3-1-2.4-2.5-2.4H668l61 77.8h15.3c1.4 0 2.5-1 2.5-2.5z"/><path d="M746.8 112.3v-73c0-1.3-1-2.4-2.5-2.4H668l61 77.8h15.3c1.4 0 2.5-1 2.5-2.5z" opacity=".1"/></g></g><g><linearGradient id="j" x1="180.9" x2="180.9" y1="127.8" y2="127.5" gradientUnits="userSpaceOnUse"><stop offset="0" stop-opacity=".6"/><stop offset=".1" stop-opacity=".5"/><stop offset="1" stop-opacity="0"/></linearGradient><path fill="url(#j)" d="M181.4 127.6h-1c.4.3.7.2 1 0z"/><linearGradient id="k" x1="193.7" x2="193.7" y1="127.8" y2="113.1" gradientUnits="userSpaceOnUse"><stop offset="0" stop-opacity=".6"/><stop offset=".1" stop-opacity=".5"/><stop offset="1" stop-opacity="0"/></linearGradient><path fill="url(#k)" d="M205 113h-22.5s.6 12.7-1 14.6H192v.2h3.3l10.7-.2c-1.7-2-1-14.5-1-14.5z"/><linearGradient id="l" x1="206.5" x2="206.5" y1="127.8" y2="127.5" gradientUnits="userSpaceOnUse"><stop offset="0" stop-opacity=".6"/><stop offset=".1" stop-opacity=".5"/><stop offset="1" stop-opacity="0"/></linearGradient><path fill="url(#l)" d="M206 127.6c.3.2.6.3 1 0h-1z"/><path fill="#FFF" d="M250.5 112.3c0 1.4-1 2.5-2.5 2.5H139.6c-1.3 0-2.5-1-2.5-2.5v-73c0-1.3 1.3-2.4 2.6-2.4H248c1.4 0 2.5 1 2.5 2.4v73z"/><g><path fill="#000" d="M250.5 39.4c0-1.4-1-2.5-2.5-2.5H139.6c-1.3 0-2.5 1-2.5 2.4v65.2h113.5V39.4z"/><path fill="#DCDDDD" d="M139.6 114.8H248c1.4 0 2.5-1 2.5-2.5v-7.7H137v7.7c0 1.4 1.3 2.5 2.6 2.5z"/></g><path fill="#AF519A" d="M142 41.4h104v58.8H142z"/><circle cx="193.8" cy="108.3" r="1.6" fill="#9FA0A0"/><path fill="#DCDDDD" d="M175.2 127H212v1.6H175z"/><g fill="#FFF" opacity=".3"><path d="M250.5 112.3v-73c0-1.3-1-2.4-2.5-2.4h-76.2l60.8 77.8H248c1.4 0 2.5-1 2.5-2.5z"/><path d="M250.5 112.3v-73c0-1.3-1-2.4-2.5-2.4h-76.2l60.8 77.8H248c1.4 0 2.5-1 2.5-2.5z" opacity=".1"/></g></g><g><g fill="#EFEFEF"><path d="M44.3 453h-1c.4.4.7.3 1 0z"/><path d="M68 438.6H45.2s.7 12.6-1 14.5l10.7.2H69c-2-2-1-14.6-1-14.6zM69 453c0 .3.5.4 1 0h-1z"/></g><linearGradient id="m" x1="43.8" x2="43.8" y1="453.3" y2="453" gradientUnits="userSpaceOnUse"><stop offset="0" stop-opacity=".6"/><stop offset=".1" stop-opacity=".5"/><stop offset="1" stop-opacity="0"/></linearGradient><path fill="url(#m)" d="M44.3 453h-1c.4.4.7.3 1 0z"/><linearGradient id="n" x1="56.6" x2="56.6" y1="453.3" y2="438.6" gradientUnits="userSpaceOnUse"><stop offset="0" stop-opacity=".6"/><stop offset=".1" stop-opacity=".5"/><stop offset="1" stop-opacity="0"/></linearGradient><path fill="url(#n)" d="M68 438.6H45.2s.7 12.6-1 14.5l10.7.2H69c-2-2-1-14.6-1-14.6z"/><linearGradient id="o" x1="69.4" x2="69.4" y1="453.3" y2="453" gradientUnits="userSpaceOnUse"><stop offset="0" stop-opacity=".6"/><stop offset=".1" stop-opacity=".5"/><stop offset="1" stop-opacity="0"/></linearGradient><path fill="url(#o)" d="M69 453c0 .3.5.4 1 0h-1z"/><path fill="#FFF" d="M113.4 437.8c0 1.4-1 2.5-2.5 2.5H2.4c-1.4 0-2.5-1-2.5-2.5v-73c0-1.3 1-2.4 2.5-2.4H111c1.3 0 2.4 1 2.4 2.5v72.8z"/><g><path fill="#000" d="M113.4 365c0-1.5-1-2.6-2.5-2.6H2.4c-1.4 0-2.5 1-2.5 2.5v65h113.4v-65z"/><path fill="#DCDDDD" d="M2.5 440.3H111c1.3 0 2.4-1 2.4-2.5V430H0v7.8c0 1.4 1 2.5 2.5 2.5z"/></g><path fill="#6290C1" d="M4.8 367h104v58.7H4.8z"/><circle cx="56.6" cy="433.8" r="1.6" fill="#9FA0A0"/><path fill="#DCDDDD" d="M38 452.5H75v1.6H38z"/><g fill="#FFF" opacity=".3"><path d="M113.4 437.8v-73c0-1.3-1-2.4-2.5-2.4H34.5l61 78h15.3c1.3 0 2.4-1.2 2.4-2.6z"/><path d="M113.4 437.8v-73c0-1.3-1-2.4-2.5-2.4H34.5l61 78h15.3c1.3 0 2.4-1.2 2.4-2.6z" opacity=".1"/></g></g><path fill="#FFF" d="M-696.5 85.4v-1l5-1.4c0-3.2-.5-6.4-1.2-9.4l-5.3-.2c-.5-2.2-1.2-4.2-2-6.2l4.3-3.2c-1.2-3-2.7-5.8-4.4-8.4l-5 1.6c-1.3-1.8-2.6-3.5-4-5l3-4.6c-2.3-2.3-4.6-4.5-7-6.4l-4.3 3.2-5.5-3.5 1.2-5.2c-2.8-1.5-5.7-2.7-8.7-3.7l-3 4.6c-2-.6-4-1-6.2-1.4l-.6-5.3c-2.5-.4-5-.5-7.4-.5h-2.2l-1 5.2c-2.3 0-4.4.4-6.5.8l-2.5-4.7c-3.2.7-6.2 1.6-9 2.8l.6 5.3c-2 .8-3.8 1.7-5.6 3l-4-3.8c-2.6 1.8-5 3.7-7.4 5.8l2.4 4.7c-1.5 1.5-3 3-4.3 4.8l-4.8-2c-2 2.4-3.7 5-5 8l3.8 3.4c-1 2-1.8 4-2.5 6l-5.3-.4c-1 3-1.6 6-2 9.3l5 2c-.3 1.7-.5 3.6-.5 5.4v1l-5 1.5c0 3 .5 6.3 1.2 9.3l5.2.2c.5 2 1.2 4.2 2 6.2l-4.3 3.2c1 2.8 2.6 5.6 4.3 8.3l5-1.6c1.2 1.8 2.5 3.5 4 5l-3 4.6c2.2 2.3 4.5 4.5 7 6.4l4.2-3.2c1.8 1.2 3.6 2.4 5.5 3.4l-1.2 5c2.8 1.6 5.7 2.8 8.7 3.8l3-4.5c2 .6 4 1 6.2 1.4l.6 5.2c2.4.2 4.8.4 7.3.4h2.2l1-5.2c2.3-.2 4.4-.4 6.5-.8l2.4 4.7c3.2-.6 6.2-1.6 9-2.7l-.6-5.3 5.8-3 4 3.6c2.6-1.7 5-3.6 7.4-5.7l-2.4-4.8c1.5-1.5 3-3 4.3-4.8l5 2c2-2.4 3.7-5 5-8l-3.8-3.5c1-2 1.8-4 2.5-6l5.3.2c1-3 1.6-6 2-9.2l-4.8-2c.2-1.8.3-3.7.3-5.6zm-51 44.8c-24.6 0-44.6-20-44.6-44.8 0-24.7 20-44.7 44.6-44.7 24.7 0 44.7 20 44.7 44.7 0 24.7-20 44.8-44.7 44.8z"/><path fill="#FFF" d="M-793.6 39v-1l4.3-1.2c-.2-2.8-.5-5.4-1-8l-4.6-.2c-.3-1.8-1-3.5-1.5-5.2l3.6-2.8c-1-2.5-2.2-4.8-3.6-7l-4.3 1.3c-1-1.7-2-3-3.3-4.5l2.5-3.8c-1.8-2-3.8-3.8-6-5.4l-3.5 2.7-4.6-3 1-4.3c-2.3-1.3-4.8-2.3-7.3-3l-2.5 3.7c-1.7-.5-3.5-1-5.3-1.2l-.7-4.5c-2-.2-4-.4-6-.4h-2l-1 4.5c-1.8 0-3.6.3-5.4.7l-2.2-4c-2.6.5-5.2 1.3-7.7 2.3l.7 4.5c-1.6.8-3.3 1.6-4.8 2.5l-3.4-3c-2.3 1.4-4.4 3-6.4 5l2 4c-1.2 1-2.5 2.5-3.6 4l-4.2-2c-1.6 2.3-3 4.5-4.3 7l3.4 3c-.8 1.6-1.5 3.3-2 5l-4.6-.2c-.8 2.5-1.4 5.2-1.8 8l4.2 1.6c-.2 1.5-.3 3-.3 4.7v.6l-4.4 1.4c.2 2.7.5 5.4 1 8h4.6c.4 2 1 3.7 1.6 5.4l-3.6 2.7c1 2.6 2.3 5 3.7 7.3l4.2-1.4c1 1.4 2.2 2.8 3.4 4.2L-872 71c2 2 4 3.8 6 5.5l3.6-2.8 4.6 3-1 4.4c2.4 1.3 5 2.4 7.4 3.2l2.5-3.8c1.8.5 3.6 1 5.4 1.2l.6 4.4c2 .3 4 .4 6.2.4h1.8l1-4.4c1.8 0 3.6-.4 5.4-.7l2 4c2.7-.6 5.3-1.4 7.8-2.4l-.6-4.6c1.6-.7 3.3-1.6 4.8-2.5l3.3 3c2.3-1.5 4.4-3 6.4-5l-2-4c1.4-1.2 2.6-2.5 3.7-4l4.2 1.8c1.5-2 3-4.4 4.2-6.8l-3.3-3 2-5 4.5.2c.8-2.6 1.4-5.2 1.8-8l-4.2-1.6c.3-1.6.4-3 .4-4.7zm-43.2 38c-21 0-38-17-38-38s17-38 38-38 38 17 38 38-17 38-38 38z"/><g class="api-bank1"><path d="M57.4 379.3l19.2 7.7v2.6H74c0 .3 0 .6-.3 1l-1 .2H42c-.3 0-.7 0-1-.3-.2-.3-.4-.6-.4-1H38V387l19.4-7.7zm18 32c.2 0 .6.2.8.5.3.3.4.6.4 1v2.5H38v-2.6c0-.3.2-.6.5-1 .3-.2.6-.3 1-.3h35.8zM43 392.2h5.2v15.6H51V392h5v15.6h2.6V392h5.2v15.6h2.6V392h5v15.6h1.3c.4 0 .7 0 1 .3.2.2.4.5.4.8v1.3H40.7V409c0-.3.2-.6.5-1l1-.2h1.2V392z"/></g><g class="api-bank2"><path d="M690.8 53.3L710 61v2.6h-2.5c0 .3-.2.6-.4 1-.2.2-.5.3-1 .3h-30.6c-.3 0-.7-.2-1-.5-.2-.3-.3-.6-.3-1h-2.5V61l19.3-7.7zm18 32.2c.2 0 .6 0 .8.3.3.3.5.6.5 1v2.5h-38.5v-2.6c0-.3 0-.6.4-1l1-.2h35.7zm-32.2-19.3h5.2v15.4h2.5V66.2h5.2v15.4h2.6V66.2h5.2v15.4h2.6V66.2h5v15.4h1.3c.5 0 .8 0 1 .4.3.2.5.5.5 1V84H674V83c0-.5.2-.8.5-1 .2-.3.6-.4 1-.4h1V66.2z"/></g><g class="api-client1"><path d="M209.2 81.5c0 1.6-.5 3-1.5 3.8-1 1-2.2 1.4-4 1.4h-17.4c-1.6 0-3-.4-4-1.4S181 83 181 81.5v-2c0-.7 0-1.5.3-2.2 0-.8.3-1.5.5-2.2l1-2c.2-.5.6-1 1-1.5.6-.4 1-.8 1.8-1 .7-.3 1.4-.5 2.3-.5l.7.5c.5.2 1 .6 1.5 1l2.2 1s1.8.3 2.7.3c1 0 1.8 0 2.7-.4l2.2-1 1.4-1 .8-.4c1 0 1.6.2 2.3.4l1.7 1c.5.5 1 1 1.3 1.7l.8 2 .5 2.3c.2.7.3 1.5.3 2.2.2.6.2 1.3.2 2zM200.5 58c1.5 1.6 2.3 3.5 2.3 5.6 0 2-.8 4-2.3 5.4s-3.3 2.3-5.4 2.3c-2 0-4-.7-5.4-2.3-1.5-1.5-2.3-3.3-2.3-5.4 0-2 .8-4 2.3-5.5 1.5-1.4 3.3-2 5.5-2s4 .6 5.5 2z"/></g><g class="api-client2"><path d="M847.5 407.5c0 1.6-.5 3-1.5 3.8-1 1-2.3 1.4-4 1.4h-17.5c-1.6 0-3-.5-4-1.4s-1.3-2.2-1.3-3.8v-2c0-.8.2-1.5.3-2.3.2-.8.3-1.5.6-2.2l1-2 1.2-1.5c.4-.5 1-.8 1.7-1 .6-.4 1.3-.5 2-.5.2 0 .5 0 1 .4l1.5 1 2 1s2 .4 2.8.4 1.8-.2 2.7-.5l2.2-1 1.5-1 .8-.3c.8 0 1.6 0 2.2.4.7.3 1.3.6 1.8 1l1.2 1.7 1 2c0 .7.3 1.4.4 2.2l.4 2.2v2zm-8.7-23.4c1.5 1.6 2.2 3.4 2.2 5.6 0 2-.7 4-2.2 5.4s-3.4 2.3-5.5 2.3-4-.8-5.4-2.3c-1.6-1.5-2.4-3.3-2.4-5.4 0-2.2.8-4 2.3-5.5 1.4-1.4 3.2-2.2 5.3-2.2s4 .8 5.5 2.3z"/></g></svg>
