<?xml version="1.0" encoding="utf-8"?>
<!-- Generator: Adobe Illustrator 15.0.0, SVG Export Plug-In . SVG Version: 6.00 Build 0)  -->
<!DOCTYPE svg PUBLIC "-//W3C//DTD SVG 1.1//EN" "http://www.w3.org/Graphics/SVG/1.1/DTD/svg11.dtd">
<svg version="1.1" xmlns="http://www.w3.org/2000/svg" xmlns:xlink="http://www.w3.org/1999/xlink" aria-labelledby="title" x="0px" y="0px"
	 width="643px" height="530.60px" viewBox="0 0 199.338 164.494" style="enable-background:new 0 0 199.338 164.494;"
	 xml:space="preserve">
<title id="Sqirl Logo"></title>
<g id="icon" style="fill: whitesmoke;">
	<g>
		<path class="st0" d="M166.03,100.75c-4.788,0.013-8.934-0.131-12.928-1.488c-8.239-2.798-12.671-8.835-14.54-17.069
			c-1.261-5.557-1.154-11.141,0.791-16.43c2.204-5.993,6.896-9.741,12.921-11.62c5.135-1.602,10.445-1.707,15.74-0.843
			c3.027,0.494,5.582,2.103,8.056,3.839c1.937,1.359,3.995,1.447,4.847,0.289c0.92-1.25,0.104-3.197-2.088-4.501
			c-14.204-8.453-35.493-7.008-46.449,10.909c-2.002,3.275-3.818,6.659-5.12,10.262c-4.488,12.413-13.505,20.294-25.212,25.569
			c-1.605,0.725-3.21,1.04-4.978,1.036c-17.445-0.041-34.89-0.025-52.336-0.026c-2.261,0-2.292-0.045-1.787-2.227
			c0.539-2.329,1.904-3.779,4.276-4.379c3.403-0.862,6.851-0.605,10.293-0.634c0.712-0.006,1.545,0.306,1.789-0.86
			c0.215-1.025,0.194-1.839-0.738-2.536c-10.873-8.122-12.427-21.635-1.474-30.993c8.173-6.984,19.532-8.184,28.962-3.04
			c1.519,0.828,3.054,1.581,4.746,1.993c0.855,0.209,1.671,0.257,2.319-0.425c0.73-0.768,0.525-1.664,0.16-2.512
			c-0.772-1.793-2.259-2.906-3.87-3.851c-3.307-1.939-6.938-2.951-10.715-3.27c-7.334-0.619-14.407,0.187-20.757,4.37
			c-2.379,1.567-4.174,3.753-6.188,5.704c-4.878,4.724-10.507,7.571-17.481,7.364c-3.407-0.101-6.373-1.252-8.978-3.344
			c-2.538-2.04-5.005-4.17-7.465-6.305c-2.307-2.003-4.733-3.227-8.001-2.725c-2.365,0.364-4.824,0.532-7.257,0.193
			c-2.589-0.36-3.312-2.021-1.748-4.159c2.063-2.821,4.891-4.043,8.348-4.321c4.779-0.384,9.569-0.368,14.351-0.68
			c8.211-0.537,15.498-9.551,14.932-15.873c-0.045-0.507-0.07-1.021-0.168-1.519c-0.228-1.152-0.737-2.135-2.094-2.056
			c-1.337,0.078-1.844,1.103-1.899,2.264c-0.378,8.035-5.852,12.192-13.031,13.532c-5.337,0.996-10.696,0.718-15.994-0.342
			c-3.853-0.77-6.004-4.368-4.611-8.422c2.385-6.942,5.833-13.332,11.475-18.278c2.34-2.051,5.159-3.026,8.19-3.39
			c1.585-0.19,2.291-0.914,2.532-2.531c0.541-3.627,2.833-5.836,6.179-7.155c1.468-0.578,2.49-0.216,3.271,1.006
			c0.926,1.451,1.841,2.917,2.639,4.441c2.567,4.905,6.353,8.786,10.436,12.387c3.694,3.258,8.341,3.607,12.969,3.751
			c6.899,0.216,13.812,0.457,20.581,1.841c11.461,2.343,20.781,7.99,26.661,18.443c1.967,3.497,2.806,7.356,3.032,11.366
			c0.494,8.756-1.081,17.018-5.58,24.645c-0.729,1.235-1.018,2.655-0.201,4.009c0.568,0.943,1.537,1.086,2.536,0.941
			c1.19-0.174,1.899-1.021,2.423-1.992c4.67-8.66,7.029-17.661,4.934-27.617c-1.604-7.618-1.843-15.33,0.597-22.911
			c2.152-6.684,6.634-11.419,12.573-14.85c10.713-6.19,22.257-9.339,34.531-7.039c14.943,2.801,26.777,10.74,33.121,24.865
			c7.922,17.643,8.251,35.339-2.409,52.296c-2.325,3.698-5.409,6.781-8.653,9.695C177.6,99.939,171.772,101.231,166.03,100.75
			 M15.259,30.919c1.886,0.039,3.56-1.574,3.595-3.465c0.037-1.928-1.516-3.511-3.473-3.539c-2.001-0.03-3.536,1.437-3.572,3.413
			C11.773,29.258,13.331,30.879,15.259,30.919"/>
		<line class="st0" x1="149.872" y1="118.971" x2="149.872" y2="118.971"/>
	</g>
</g>
</svg>
