<svg xmlns="http://www.w3.org/2000/svg" width="810.7" height="579.9" viewBox="0 0 810.7 579.9">
  <path d="M268.8 363.7V361c0-5.6-1-11.3-2.5-16.6l-.3-1 16-12.3c-1.6-3.5-3.4-7-5.5-10.3l-19.3 6.3-.5-.8c-4-5-8.6-9.2-14-12.5 0-.2-.4-.4-.7-.5l4.4-19.8c-3.5-1.8-7.2-3.2-11-4.4l-10.6 17h-1c-3.6-.8-7.4-1.2-11.3-1.2-2.5 0-5 .2-7.3.5h-1l-9.3-17.8c-4 1-7.8 2-11.4 3.6l2.8 20c-.2.4-.5.5-.8.7-5.5 3-10.5 6.8-14.7 11.4l-.7.8-18.7-7.7c-2.4 3.3-4.5 6.6-6.3 10l15 13.6-.3 1c-2.2 5.6-3.5 11.7-3.8 18v1l-19.3 6.2c0 4 .6 8 1.4 11.7l20.2.6.3 1c2 6 5 11.6 8.6 16.5l.6.7-10.8 17.2c2.7 2.8 5.6 5.5 8.8 8l15.8-12.6 1 .5c5.2 3.4 11 5.8 17.2 7l1 .4 2.6 20c3 .3 5.8.5 8.7.5l3-.2 4.2-19.8h1c6.3-1 12.3-3 17.7-5.8l1-.5 14.8 13.6c3.3-2.2 6.4-4.6 9.3-7.3l-9.5-17.7.6-.7c4-4.8 7.5-10 10-16l.3-1 20 1c1-3.7 2-7.5 2.5-11.5l-18.8-7.5zM212.2 404c-23 0-41.8-18.7-41.8-41.8s18.7-42 41.8-42c23.2 0 42 18.8 42 42s-18.8 42-42 42z" class="gear light st0">
    <animateTransform attributeType="xml" attributeName="transform" type="rotate" from="0 213.323 360.841" to="-360 213.323 360.841" dur="6s" repeatCount="indefinite"/>
  </path>
  <path d="M315 163.7V161c0-5.6-.8-11.3-2.5-16.6l-.3-1 16-12.3c-1.5-3.5-3.3-7-5.5-10.3l-19.2 6.3-.6-.8c-4-5-8.7-9.2-14-12.5l-.8-.5 4.3-19.8c-3.5-1.8-7-3.2-11-4.5L271 106h-1c-3.6-.8-7.4-1.2-11.2-1.2-2.5 0-5 .2-7.3.5h-1l-9.3-17.8c-4 1-7.7 2-11.3 3.6l2.7 20-.8.7c-5.7 3-10.6 6.8-14.8 11.4l-.7.8L198 116c-2.4 3.2-4.5 6.5-6.3 10l15 13.5-.3 1c-2.3 5.6-3.7 11.7-4 18v1l-19.2 6.2c.2 4 .8 8 1.6 11.7l20.2.6.3 1c2 6 5 11.5 8.7 16.4l.6.7-10.8 17.3c2.7 2.8 5.6 5.5 8.7 8l16-12.6.7.5c5.3 3.4 11 5.8 17.3 7 .3.2.6.3 1 .3l2.6 20c3 .4 6 .6 9 .6h3l4-20h1c6.3-1 12.2-3 17.7-5.8l.8-.5 15 13.7c3.3-2.2 6.4-4.6 9.3-7.3l-9.6-17.6.7-.7c4-4.7 7.3-10 9.7-15.8 0-.4.2-.7.4-1l20.3 1c1-4 2-7.7 2.4-11.7l-18.8-7.5zM258.5 204c-23 0-42-18.7-42-41.8s19-42 42-42c23.2 0 42 18.8 42 42s-18.8 42-42 42z" class="gear light st0">
    <animateTransform attributeType="xml" attributeName="transform" type="rotate" from="0 259.323 161.841" to="-360 259.323 161.841" dur="6s" repeatCount="indefinite"/>
  </path>
  <path d="M490 200.2v-2.6c0-5.8-.8-11.5-2.5-16.8l-.3-1 16-12.3c-1.5-3.6-3.4-7-5.5-10.4l-19.2 6.5-.6-.8c-4-4.8-8.7-9-14-12.5l-.8-.4 4.3-19.7c-3.5-2-7-3.3-11-4.5l-10.5 17h-1c-3.6-.8-7.4-1-11.2-1-2.5 0-5 0-7.3.2-.3 0-.6 0-1 .2l-9.3-18c-4 1-7.6 2-11.3 3.5l2.7 20c-.3 0-.6.3-.8.4-5.7 3-10.6 7-14.8 11.4l-.7.7-18.6-7.6c-2.5 3.2-4.6 6.5-6.4 10l15 13.5-.3 1c-2.3 5.4-3.6 11.6-4 18v1l-19.2 6c.3 4 1 8 1.7 12l20.2.4.2 1c2 6 5 11.5 8.7 16.4l.5.6-10.8 17c2.7 3 5.6 5.6 8.7 8l16-12.5.7.5c5.4 3.3 11 5.7 17.4 7l1 .2 2.6 20c3 .4 5.8.6 8.8.6h3l4.2-20h1c6.3-1 12.2-3 17.7-5.7l.8-.5 15 13.8c3.3-2.3 6.4-4.7 9.3-7.4l-9.6-17.8.7-.7c4-4.7 7.3-10 9.7-15.8 0-.3.2-.6.4-1l20.3 1c1-3.8 2-7.6 2.4-11.6L490 200zm-56.5 40.4c-23 0-42-18.8-42-42s19-41.8 42-41.8 42 18.7 42 42-18.8 41.8-42 41.8z" class="gear light st0">
    <animateTransform attributeType="xml" attributeName="transform" type="rotate" from="0 434.323 197.841" to="360 434.323 197.841" dur="6s" repeatCount="indefinite"/>
  </path>
  <path d="M522.5 484.6V482c0-5.7-1-11.3-2.6-16.7l-.5-1 16-12.2c-1.5-3.6-3.3-7-5.4-10.4l-19 6.4-.7-1c-3.8-4.8-8.5-9-13.8-12.4l-.8-.5 4.4-19.6c-3.3-1.7-7-3.2-11-4.4l-10.4 17h-1c-3.7-1-7.5-1.3-11.3-1.3-2.5 0-5 .2-7.3.5h-1l-9.4-17.8c-4 1-7.6 2.2-11.3 3.7l3 20-1 .6c-5.4 3-10.4 7-14.6 11.5l-.7.8-18.6-7.7c-2.4 3-4.5 6.6-6.3 10l15 13.5v1c-2.4 5.6-3.7 11.7-4 18v1l-19.3 6.2c.2 4 .8 8 1.6 11.7l20.2.6.3 1c2 6 5 11.4 8.7 16.3l.6.8-10.7 17c2.7 3 5.6 5.7 8.7 8l15.8-12.3c.3 0 .5.3.8.5 5.3 3.3 11 5.7 17.3 7 0 .2.4.2.7.3l2.7 20c2.8.3 5.8.5 8.7.5h3l4.3-19.8c.3 0 .7 0 1-.2 6.3-1 12.3-2.8 17.7-5.7.4 0 .7-.2 1-.3l15 13.6c3.2-2.2 6.3-4.6 9.2-7.2l-9.6-17.8.7-.7c4-4.7 7.5-10 10-16 0-.2 0-.4.3-.7l20.2.7c1-3.7 2-7.6 2.5-11.5l-18.8-7.6zM466 525c-23.2 0-42-18.7-42-42s18.8-41.8 42-41.8 41.8 18.8 41.8 42-18.7 41.8-42 41.8z" class="gear light st0">
    <animateTransform attributeType="xml" attributeName="transform" type="rotate" from="0 466.323 482.841" to="360 466.323 482.841" dur="6s" repeatCount="indefinite"/>
  </path>
  <path d="M481.4 350v-4.2c0-10-1.4-19.5-4.2-28.5l-.5-1.5 27-21c-2.6-6-5.7-12-9.2-17.5L462 288l-1-1.3c-6.6-8.3-14.5-15.5-23.4-21.2l-1.4-.8 7.4-33.4c-6-3-12-5.5-18.5-7.5l-18 29-1.4-.3c-6.2-1.3-12.7-2-19.2-2-4.2 0-8.3.3-12.3.8l-1.5.3-16-30.3c-6.4 1.5-12.7 3.6-19 6l5 34-1.4.7c-9.3 5-17.6 11.6-25 19.3 0 .4-.5.8-1 1.2l-31.4-13c-4 5.4-7.5 11-10.6 17l25.3 22.7-.6 1.5c-3.8 9.6-6 20-6.6 30.8v1.6l-32.4 10.5c.4 6.8 1.3 13.4 2.7 19.8l34 1 .6 1.7c3.3 10 8.3 19.4 14.7 27.7l1 1.3-18.3 28.8c4.6 4.8 9.5 9.3 14.8 13.4l27-21 1.3.7c9 5.3 18.7 9.4 29.2 11.7.5 0 1 .2 1.6.4l4.6 34c4.7.5 9.6.7 14.6.7h5.3l7-33.5c.4 0 1 0 1.5-.2 10.6-1.5 20.7-4.8 30-9.6l1.4-.8 25 23c5.7-3.6 11-7.7 16-12.2l-16.3-30 1-1.3c7-7.7 12.7-16.6 16.8-26.5l.7-1.5 34 1.3c2-6.3 3.3-12.8 4.2-19.5l-32-12.8zM386 418.5c-39.2 0-71-31.7-71-70.8s31.8-71 71-71c39 0 70.7 31.8 70.7 71S425 418.4 386 418.4z" class="gear">
    <animateTransform attributeType="xml" attributeName="transform" type="rotate" from="0 386.323 347.841" to="-360 386.323 347.841" dur="6s" repeatCount="indefinite"/>
  </path>
  <path d="M278.2 241.3v-2.5c0-6-.8-11.6-2.5-17l-.3-.8 16-12.4c-1.5-3.6-3.4-7-5.5-10.4l-19.4 6.3-.6-.7c-3.8-5-8.4-9-13.7-12.5l-.8-.5 4.3-19.8c-3.5-1.7-7-3.2-11-4.4l-10.6 17.2-1-.2c-3.6-.8-7.4-1.2-11.3-1.2-2.6 0-5 .2-7.4.5h-1l-9.3-18c-4 1-7.7 2.2-11.3 3.6l3 20-1 .5c-5.4 3-10.3 7-14.5 11.5l-.7.7-18.7-7.6c-2 3-4.2 6.5-6 10l15 13.4-.4 1c-2.2 5.7-3.6 11.8-4 18.2v1l-19 6c0 4 .7 8 1.5 11.8l20.3.6.3 1c2 6 5 11.5 8.7 16.4l.6.8-11 17c2.8 3 5.7 5.5 8.8 8l16-12.5c.2 0 .4.3.7.5 5.2 3.2 11 5.6 17.3 7 .3 0 .6 0 1 .2l2.6 20c2.8.3 5.7.5 8.7.5h3l4.3-19.8c.3 0 .6 0 1-.2 6.3-1 12.2-3 17.7-5.7l.7-.4 15 13.6c3.3-2.2 6.4-4.6 9.3-7.3l-9.6-17.8.7-1c4.3-4.5 7.7-10 10-15.7l.4-1 20.3 1c1-3.7 2-7.6 2.4-11.6l-18.7-7.5zm-56.5 40.4c-23 0-42-18.8-42-42s19-41.8 42-41.8 42 18.6 42 41.7-19 42-42 42z" class="gear">
    <animateTransform attributeType="xml" attributeName="transform" type="rotate" from="0 221.323 239.841" to="360 221.323 239.841" dur="6s" repeatCount="indefinite"/>
  </path>
  <path d="M282.2 442v-3.3c0-7.2-1-14.2-3-20.8l-.5-1.4 20-15.3c-2-4.5-4.4-8.8-7-13l-23.8 8-1-1c-4.7-6-10.5-11.3-17-15.4l-1-.8 5.4-24.4c-4.4-2.3-9-4-13.6-5.6l-13.3 21.3-1-.3c-4.7-1-9.4-1.4-14.2-1.4-3 0-6 .2-9 .6h-1l-11.7-22c-4.8 1-9.5 2.6-14 4.5l3.6 24.7-1 .6c-7 3.7-13 8.5-18.2 14l-.8 1-23-9.5c-3 3.8-5.6 8-8 12.3l18.7 16.7-.4 1c-2.8 7-4.5 14.6-4.8 22.6-.2.4-.2.8-.2 1.2l-23.8 7.5c.3 5 1 9.8 2 14.5l25 .8c0 .4.2.8.3 1 2.6 7.6 6.3 14.4 11 20.5l1 1-13.6 21c3.3 3.7 7 7 10.8 10l19.7-15.5 1 .6c6.4 4 13.6 7 21.2 8.7l1.2.3 3.3 24.8c3.5.4 7 .7 10.8.7h3.8l5-24.6c.5 0 1-.3 1.3-.4 7.8-1 15.2-3.5 22-7l1-.6 18.5 17c4-2.7 8-5.7 11.6-9L264 486c0-.4.4-.7.7-1 5-5.7 9.2-12.3 12.2-19.5 0-.3 0-.7.3-1l25 1c1.4-4.6 2.4-9.4 3-14.3L282 442zm-70 50c-28.6 0-51.8-23.4-51.8-52s23.2-51.8 51.8-51.8c28.7 0 52 23.2 52 51.8 0 28.6-23.3 52-52 52z" class="gear">
    <animateTransform attributeType="xml" attributeName="transform" type="rotate" from="0 212.323 441.841" to="360 212.323 441.841" dur="6s" repeatCount="indefinite"/>
  </path>
  <path d="M190.4 345v-2.5c0-6-1-11.6-2.5-17l-.5-.8 16-12.3c-1.6-3.7-3.4-7.2-5.5-10.5l-19 6-.6-.7c-3.8-5-8.5-9-13.8-12.5l-.8-.5 4.4-19.8c-3.5-1.7-7.2-3.2-11-4.4l-10.6 17.3-1-.2c-3.6-.7-7.4-1-11.3-1-2.4 0-4.8.2-7.2.5h-1l-9.2-17.8c-4 1-7.6 2.2-11.2 3.6l2.8 20-.7.5c-5.5 3-10.5 6.8-14.7 11.3l-.6 1-18.7-7.7c-2.4 3-4.5 6.5-6.3 10l15 13.4-.3 1c-2.2 5.6-3.5 11.7-4 18v1L58.6 347c.3 4 .8 8 1.6 11.7l20.4.6.3 1c2 6 5 11.5 8.7 16.4l.6.8-11 17c2.8 3 5.7 5.5 9 8l15.7-12.5c.3 0 .6.3.8.5 5.3 3.2 11 5.6 17.3 7 .3 0 .6 0 1 .2l2.6 20c3 .3 5.8.5 8.7.5h3.3l4-19.8c.5 0 .8 0 1-.2 6.4-1 12.4-3 17.8-5.7.4 0 .7-.3 1-.4l15 13.8c3.2-2.2 6.3-4.6 9.2-7.3l-9.4-17.8.6-.7c4-4.7 7.5-10 10-16l.3-.8 20.2 1c1-3.8 2-7.7 2.4-11.6l-18.8-7.6zm-56.6 40.4c-23 0-41.8-18.8-41.8-42s18.7-41.8 41.8-41.8c23.2 0 42 18.8 42 42s-18.8 41.8-42 41.8z" class="gear">
    <animateTransform attributeType="xml" attributeName="transform" type="rotate" from="0 134.323 343.841" to="-360 134.323 343.841" dur="6s" repeatCount="indefinite"/>
  </path>
  <circle cx="568" cy="328.9" r="215.5" class="circle-bg"/>
  <circle cx="568" cy="328.9" r="215.5" class="line-circle"/>
  <circle cx="136.9" cy="425.3" r="108.3" class="circle-bg"/>
  <circle cx="136.9" cy="425.3" r="108.3" class="line-circle"/>
  <circle cx="159" cy="144.4" r="132.9" class="circle-bg"/>
  <circle cx="159" cy="144.4" r="132.9" class="line-circle"/>
  <path class="arrow" d="M55 346.7c-9.7-6.7-19.4-17.7-26-28.5-14.8-24-13.8-52-.3-76.6.4-1-17.2-10.2-18.2-8.5C3.5 246.5-.7 261 0 276c.8 12 5 23.5 11 33.8 6.8 11.8 16.6 22.8 27.8 30.7 3.7 2.6 8 4.4 12.2 6 .6.3 7 2.6 4 .4z"/>
  <path d="M43.7 340.4s-68-41.2-21.6-106.6" class="line"/>
  <path class="arrow" d="M37.7 215.4c-4 11.4-7.5 26.8-7.3 38.4l-10.2-17.4-19-7c11.5-1.8 26-8 36.5-14z"/>
  <g class="text bankability">
    <path d="M325.4 97.5c1.7 0 2.5.8 2.5 2.4v5.2c0 2.2-1.2 3.4-3.5 3.4h-6V86h4.8c2.7 0 4 1.5 4 4.2V95c0 1.3-.7 2-2 2.5zm-4-1.2h1.4c.6 0 1 0 1.2-.3.2-.3.3-.6.3-1.2v-4.5c0-1-.5-1.7-1.4-1.7h-1.5v7.7zm0 9.8h2.6c.6 0 1-.3 1-1v-4.6c0-1-.7-1.6-2-1.6h-1.5v7.3zM333.3 108.6h-3V90c0-2.6 1.2-4 3.5-4h2.3c2.5 0 3.7 1.4 3.7 4v18.6h-3v-8.3h-3.4v8.3zm3.4-11v-7.4c0-1-.4-1.4-1.3-1.4h-.8c-1 0-1.3.5-1.3 1.4v7.4h3.4zM348.6 86h3v22.6h-3V104l-3.3-10v14.6h-3V86h3l3.3 11V86zM357.4 97.4l3.2-11.3h2.7L360 97.4l4 11.3h-3l-3.6-11v11h-3V86h3v11.4zM368.3 108.6h-3V90c0-2.6 1.2-4 3.6-4h2c2.5 0 3.7 1.4 3.7 4v18.6h-3v-8.3h-3.4v8.3zm3.4-11v-7.4c0-1-.4-1.4-1.3-1.4h-.8c-1 0-1.3.5-1.3 1.4v7.4h3.4zM384.3 97.5c1.7 0 2.5.8 2.5 2.4v5.2c0 2.2-1 3.4-3.4 3.4h-6V86h4.8c2.6 0 4 1.5 4 4.2V95c0 1.3-.7 2-2 2.5zm-4-1.2h1.4c.6 0 1 0 1.2-.3l.2-1.2v-4.5c0-1-.5-1.7-1.4-1.7h-1.4v7.7zm0 9.8h2.6c.5 0 .8-.3.8-1v-4.6c0-1-.6-1.6-1.8-1.6h-1.6v7.3zM389.3 108.6V86h3v22.6h-3zM401.7 108.6H395V86h3v20h3.7v2.6zM403.8 108.6V86h3v22.6h-3zM414.3 88.6v20h-3v-20h-2.8V86h8.7v2.6h-3zM423.2 96l2-10h3l-3.7 14.3v8.3h-3v-8.3L417.8 86h3l2.3 10h.2z"/>
  </g>
  <g class="arrow">
    <path d="M288 79c13-7 33.4-12.5 52.4-15 43-6 89 5 126.3 27 1.5.7 20.4-13.3 17.8-14.8-20-11.8-43-21-68-25.7-20-3.6-40-3.5-58.2-1.3-20.8 2.5-41 8.2-56.3 16.3-5 2.7-9 6.3-12.7 9.8-.5.5-5.7 6-1.3 3.6z"/>
    <path d="M298.2 68.7c1.5-1 37.8-23.5 91.8-18.7 32.2 3 63.6 15 93.4 35.8l-4.6 2.3c-28.3-19.6-58-31-88.2-33.7-51-4.7-87 17.5-87.2 17.7l-5.2-3.3z"/>
    <path d="M508.2 108.8c-18-8-42.7-17-62-20.8l31-3.8 15.4-16c.7 11.7 7.8 28 15.6 40.6z"/>
  </g>
  <g>
    <path d="M164 505v1l2.4 20 2.5-.7c-1.6-7.7-5.7-30.2-8-46.3l3 26z" class="st20"/>
    <path d="M158.6 446.7l-12.8-1.5-15.4 22.5-15.7-20s-8 3-14 5.8-5.3 12-5.3 12l7 60 2 .6-1.2-15.4-.2-1.8-2.5-35h.5l2.6 35 60.4-4.2-3-26-1.3-12.4 1.4 12.6c2.4 16 6.6 39 8 46.7 2.8-1 5.5-2.3 8-3.4-1-9.7-5.5-48.3-5.7-60.3-.3-13.8-7.4-14.4-12.6-15z" class="shirt-main"/>
    <path d="M166.2 524l-49 5.7c5.5.8 11.7 1.8 17.5 1.8 11 0 21.7-2.3 31.7-5.2l-2.3-21 2.3 18.7zm-5.2-45.6l-1.4-12.4c.2 3 .8 7.5 1.4 12.4z" class="shirt-main"/>
    <path d="M164 504.3v1m-61 3.3l.2 1.8-.2-1.8m14.2 21l49-5.6-2-18.6-.3-1-60.6 4.2 1.3 17.8c4.2 1 8 2.6 12.4 3.3z" class="shirt-stripe"/>
    <path d="M104.6 530h.3-.5zm-1.4-19.6l1 15.5h.3l-1.3-15.7zM105 530" class="eye-balls"/>
    <path d="M104.8 526l-1.3-17.4h-.5l.2 1.7 1.3 15.7h.3zm-4.4-52.4h.5l2.4 35h-.5z" class="eye-balls"/>
    <path d="M160 471l-59.3 4.2 1.8 21.3 60-3.4" class="shirt-stripe"/>
    <path d="M143.7 444.6c-3.4-2.3-10-8.2-12-21-2.8-17.3-4.3-3-4.3-3s1.4 20-9 27l12 13.8 13.3-16.8z" class="face"/>
    <path d="M118.5 447.5l-2.4-2.8-2 2.6 1.4 2 1.8-1c.6-.2 1-.5 1.5-.8zm26.8 2.5l4-5.3-4.8-1.2-.8 1c1.3 1 2 1.3 2 1.3l-.4 4.2z" class="shirt-stripe"/>
    <path d="M145.3 450l.5-4.2-2-1.2-13.4 16.8-12-14-1.3 1-1.6 1 15 20 15-19.4z" class="shirt-stripe"/>
    <g>
      <path d="M104.6 395.8s-4-2.5-4 1.3c0 6.6 6.2 9 6.2 9l-2.2-10zm44.8-2s5-4.2 5-1.3c.2 8-5 11-5 11v-9.7z" class="face"/>
      <path d="M149 382.2s9.7 40.6-18.8 44.6c-25.6 3.6-27.2-37-27.2-37v-17.3l18.2-3 24.6-2.4 3.3 15.3z" class="face"/>
      <path d="M106.8 403.5s-5.8-18.2-3.8-23c2-5 8.5-7.2 13.3-6.5s14 1.3 16.4 0c2.3-1.5 10.6-4.6 13 0 2.6 4.4 3.7 23.5 3.7 23.5l2.6-5.5-1.4-17c-.4-4.6 0-19.5 0-19.5s-9-2.7-13.5 0l.4-4.3s-1.6 1.3-8.2 2.3c-6.5 1-29.8 2.6-30.6 11.6-.8 9 6.2 36 6.2 36l2.2 2.6z" class="hair"/>
      <path d="M129 395s2.5 6.2 2.7 8.5-1.3 2.3-1.3 2.3" class="line-face nose"/>
      <path d="M121.2 411s7.4 9.4 17 0" class="line-face mouth"/>
      <path d="M133 383.8s3.8-5 8.2 0" class="line-face right-eye"/>
      <path d="M110 382.7s4-5.2 9.4 0" class="line-face left-eye"/>
      <circle cx="136.3" cy="391.5" r="3.6" class="eye-balls"/>
      <circle cx="135.5" cy="391.7" r="2" class="hair right-eye-ball"/>
      <circle cx="116" cy="393.8" r="3.6" class="eye-balls"/>
      <circle cx="115.2" cy="394" r="2" class="hair left-eye-ball"/>
    </g>
  </g>
  <g>
    <g class="light">
      <path d="M591 123.6c9 8.5 11.5 23.6 19.2 33.6 6.7-1.5 12.2-4.2 18-6.5 7 3.4 7.7 13 14.3 16.8 11.4-1.8 19.5-7.2 31-9 2 10.3.6 25.2 1.2 33.5l20.7-5c1.5 7 3.4 13.7 5 20.5 10 1 25-4.2 37.6-5-2.3 14.4-9.5 24-13 37.3 2 6.6 10.8 6.4 15.5 10.3 1 8.5-2 13-2.5 19.6 4.8 6 15.8 5.7 23.2 9-3.3 13-14 18.6-20.7 28.4 3.2 8 11 11.2 16.8 16.6-1 10.4-11 12.2-11.6 20.7-.6 11 13 17.3 14.2 29.7-15 3-27.3 7.5-19.6 27-4.6 4-12 5.3-15.4 10.4 1.5 16.2 9.6 25.7 13 40-11.4-2.8-22-6.4-35-7.8-6 2.8-2.7 15.3-7.6 19.4-7.3-1.4-15.3-4-22-2.6-3.8 10.2 3 20.2 1.3 32.3-18.7-8.5-35.5-13.7-43.8 6.4-7 .5-8.6-4.3-15.7-3.6-9.7 4.5-7.8 20.5-14.2 28.3-9.6-8-17.4-17.7-27-25.8-12.6 10.4-25 9.5-35-2.6-14.6 5-24 15.4-38.6 20.6-4.7-9.8 3.2-24.2-1.2-33.6-6.2.7-12 1.8-19.4 1.2-3.2-6 .6-18.7-2.7-24.5-12.3 2.5-21 8.5-33.4 10.6-3.3-8.5 1.2-20.3 1.3-29.7-5-4-13.6-4.6-20.7-6.6-1.2-6.8 2-14.5 0-18-8-.6-25.5.7-33.5 1.3 1.2-12.5 13.2-25.4 18-38.8-3.4-6.6-10.3-9.6-15.6-14.3 2.3-6.7 5.3-12.7 9-18-9.8-8.2-21.7-14.4-33.5-20.7 11.4-7 24.6-12.3 37.3-18-2.2-8.2-8.8-12-13-18.2 3.2-7.7 11.5-10 17-15.5-4-10.3-8-20.4-13-29.6 6.6-5 20.7-2.6 28.4-6.5-.3-7-2-12.6-1.3-20.6 7.3-1 13-3.3 19.5-5.2-3.6-13.2-7-26.5-11.6-38.7 13.2-.8 26.2 9.7 41 11.6 3.4-5.8 6-12.3 8-19.4 8 2 13.3 6.2 22 7.6 2.5-9 2.5-20.5 3.7-31 10 5 19.4 10.8 29.7 15.5 7.6-2.6 10.2-10.3 16.7-14 6.4 2.7 11.8 6.3 17 10.2 8.2-8.4 14-19.5 20.6-29.7zM574 170c-6-4-12-8.4-19.3-11.5-4.8 5-8.5 11.2-15.4 14.2-7-3.4-12.8-8-20.7-10.3-3.2 8-1 21.4-5.2 28.3-8-3-15.5-6.8-24.5-9-3.8 6-4.7 14.4-9 19.4-8.5-3.5-17.4-7-27.3-9 .2 11.6 5 18 6.5 28.5-7.5 2-14.6 4.4-22 6.5-1 8.6 2 13.3 1.3 21.8-7.3 1.3-15.3 2-22 4 1.5 9.7 6.3 16 9 24.4-5 4-11 6.8-14 13 4 8 11 13 15.4 20.5-10.6 4.6-21.5 8.8-29.8 15.5 5.6 6.5 17 7 20.7 15.5-2.6 6-5.8 11.6-8 18 4 6 10.8 9.2 15.6 14.3-4.4 9.3-9.3 18.2-14.2 27 10 .7 18.2-.6 27-1.2-.7 6.3-.4 14-1.2 23.2 6 3.5 15.7 3.2 20.7 7.7.7 7.8-1.3 12.6-1.4 19.4 12.7-1.3 20.5-7.7 32.2-10 1.6 9 1 20.3 2.5 29.6 8.4 0 14.2-2.2 22-2.6-.8 8.2 1.4 19.4-1.3 25.7 10.3-4 17.7-10.6 27-15.5 7.2 3.6 10.6 11 18 14.2 5-4.2 10.2-8 17-10.3 8.2 5.7 12.5 15 21.8 19.5 2-8.2 3.4-17.2 7.8-23.2 7.7 1.2 12.4 5.6 20.6 6.4 5.6-4.3 7.4-12.4 13-16.7 7.5 2.2 15.3 4.3 22 7.6-.5-11.2-3-20.2-4-31 11.2-.3 22.8 5.3 31 4 0-8 1.5-14.8 3.8-20.7 9 2 18.4 4 27 6.2-2-11-7.5-19-10.2-29.7 5.7-4 13-6.8 19.3-10.3-1.4-8-4.4-14.4-5-23.2 8 .4 11.5-4 19.3-3.8 0-7.7-9.5-17-13-25.8 5.5-2.7 7-9.5 11.8-13-4-9-13.3-12.4-19.3-19.2 6.7-7.4 14-14.4 19.3-23.3-5.4-3.4-14.4-3-18-8l5-20.6c-6.5-3.8-14.7-6-19.3-11.6 3.4-8.7 7.4-16.7 10.3-26-10.2.7-19 2.6-28.4 4-1-7.5-1-16.4-5.2-20.6-6 2.5-18 6-23.3 5v-31c-10 .5-14.4 6.2-24.4 6.6-3.4-6.4-6.5-13.2-13-16.8-6 2.6-12 5-19.2 6.5-4.8-8-7.5-18.4-14.2-24.5-4 8.4-9.3 15.6-15.5 22z" class="explosion"/>
      <path d="M589.6 148.2c6.7 6 9.4 16.4 14.2 24.5 7.2-1.4 13.2-4 19.3-6.5 6.6 3.6 9.7 10.4 13 16.8 10-.4 14.7-6 24.6-6.4v31c5.2.7 17-2.7 23.3-5.2 4.2 4.3 4 13 5 20.6 9.4-1.4 18.2-3.3 28.4-4-3 9.3-7 17.3-10.3 26 4.7 5.6 13 7.7 19.4 11.6l-5 20.6c3.6 5 12.6 4.5 18 7.7-5.4 8.7-12.6 15.7-19.4 23 6 7 15.4 10.4 19.3 19.4-5 3.4-6.3 10.2-11.7 13 3.4 8.8 12.8 18 13 25.7-8 0-11.4 4.3-19.4 4 .6 8.8 3.6 15.3 5 23-6.3 3.7-13.5 6.4-19.2 10.5 2.7 10.7 8 18.6 10.3 29.7-8.7-2.4-18.2-4-27-6.4-2.4 5.8-3.8 12.5-4 20.5-8 1.4-19.7-4.2-31-3.8 1 10.7 3.6 19.7 4 31-6.6-3.4-14.4-5.5-22-7.8-5.5 4.2-7.3 12.3-13 16.6-8-.8-12.8-5.2-20.5-6.4-4.4 6-5.7 15-7.8 23-9.3-4.3-13.6-13.7-22-19.2-6.6 2.4-11.8 6.2-16.7 10.4-7.5-3.2-11-10.6-18-14.2-9.4 5-16.8 11.6-27 15.5 2.6-6.3.4-17.5 1-25.8-7.6.3-13.4 2.6-21.8 2.5-1.5-9.3-1-20.6-2.6-29.7-12 2.4-19.7 8.8-32.4 10.3 0-6.7 2-11.5 1.3-19.3-5-4.5-14.8-4.2-20.8-7.7.8-9.2.5-17 1.3-23.2-9 .6-17 2-27 1.3 4.8-9 9.7-17.8 14-27-4.7-5-11.4-8.4-15.4-14.3 2-6.5 5.4-12 8-18-3.7-8.6-15-9-20.8-15.6 8.3-6.6 19.2-11 29.7-15.4-4.5-7.6-11.6-12.6-15.6-20.6 3-6 9-9 14.2-12.8-2.8-8.4-7.6-14.7-9-24.5 6.6-2 14.6-2.6 22-4 .7-8.4-2.4-13-1.4-21.8 7.4-2.3 14.5-4.7 22-6.7-1.4-10.3-6.3-17-6.5-28.4 10 2 18.8 5.3 27 9 4.6-5 5.5-13.5 9-19.4 9 2.2 16.5 6 24.6 9 4.3-7 2-20.3 5.2-28.3 8 2.4 13.7 7 20.7 10.3 7-3 10.6-9 15.4-14.2 7.3 3 13.2 7.5 19.4 11.6 6.3-6.2 11.5-13.4 15.6-21.8z" class="explosion"/>
    </g>
    <g class="text">
      <path d="M501.7 321.6v12c0 3.3 1.6 5 5 5h6.8c3.3 0 5-1.7 4.8-5V311c0-2.2-.4-3.7-1-4.4-.8-.8-1.8-1.5-3-2.2l-20.6-12.8c-1.8-1.3-3.2-2.5-4.3-3.5-1-1-1.7-2-2.2-3.2-.4-1-.7-2.2-.8-3.4l-.2-4.3v-24.7c0-13.6 6.3-20.6 19-20.8V217h11.6v14.6c11.4 1 17 8 17 20.7v12h-16.2v-12.8c0-3.5-1.6-5.3-5-5.3h-4.8c-3.8 0-5.5 2-5.3 5.5V275c0 2.4.5 4 1.4 4.6.8.7 2 1.5 3.4 2.3l20.4 12c1.5 1 2.7 2 3.6 2.7 1 1 1.5 1.8 2 2.8.4 1 .8 2.2 1 3.5l.2 4.8v25c0 13.2-6 20-18.3 20.5V368h-11.8v-14.7c-12.7-.2-19-7.7-19-22.4v-9.4h16.2zM566 321.6v12c0 3.3 1.8 5 5 5h7c3.3 0 5-1.7 4.8-5V311c0-2.2-.4-3.7-1-4.4l-3-2.2-20.6-12.8c-1.8-1.3-3.3-2.5-4.3-3.5s-1.8-2-2.3-3.2c-.4-1-.7-2.2-.8-3.4-.2-1.3-.3-2.7-.3-4.3v-24.7c0-13.6 6.3-20.6 18.8-20.8V217h11.8v14.6c11.4 1 17 8 17 20.7v12h-16.2v-12.8c.2-3.5-1.5-5.3-5-5.3h-4.7c-3.8 0-5.5 2-5.3 5.5V275c0 2.4.4 4 1.4 4.6 1 .7 2 1.5 3.5 2.3l20.3 12 3.5 2.7c1 1 1.6 1.8 2 2.8.5 1 .8 2.2 1 3.5.2 1.3.3 3 .3 4.8v25c0 13.2-6 20-18.3 20.5V368H569v-14.7c-12.8-.2-19-7.7-19-22.4v-9.4h16zM630.6 321.6v12c0 3.3 1.7 5 5 5h7c3.2 0 4.8-1.7 4.7-5V311c0-2.2-.4-3.7-1-4.4l-3-2.2-20.6-12.8c-2-1.3-3.3-2.5-4.3-3.5s-1.7-2-2.2-3.2c-.4-1-.7-2.2-.8-3.4-.2-1.3-.2-2.7-.2-4.3v-24.7c0-13.6 6.3-20.6 18.8-20.8V217h11.7v14.6c11.5 1 17.2 8 17.2 20.7v12h-16.4v-12.8c0-3.5-1.6-5.3-5-5.3h-5c-3.6 0-5.3 2-5 5.5V275c0 2.4.3 4 1.2 4.6 1 .7 2 1.5 3.6 2.3l20.4 12 3.5 2.7c1 1 1.6 1.8 2 2.8.5 1 .8 2.2 1 3.5.2 1.3.3 3 .3 4.8v25c0 13.2-6.2 20-18.4 20.5V368h-11.7v-14.7c-12.8-.2-19.2-7.7-19.2-22.4v-9.4h16.3zM482.8 389.8H495c6.8 0 10 3.4 10 10.2v35.3c0 5-2.7 7.7-8.4 7.7h-13.8v-53.2zm7 46.7h5.4c2 0 2.8-.7 2.8-2.3v-34c0-2.7-1-4-3.2-4h-5v40.3zM511.4 443v-53.2H527v6h-8.5v18h8.6v6h-8.5V437h8.6v6h-15.6zM554.3 429v5c0 6-2.8 9-8.5 9h-4.6c-5.7 0-8.5-3-8.5-9v-35c0-6.2 2.8-9.2 8.5-9.2h4.6c5.7 0 8.5 3 8.5 9v7.5h-7V399c0-2.2-1.2-3.3-3.3-3.3h-1.4c-2 0-2.8 1-2.8 3.2v35c0 2 1 3 2.8 3h1.8c2 0 2.8-1 2.8-3v-5h7zM560 443v-53.2h7V443h-7zM587.3 406.3V398c0-1.5-.7-2.3-2.2-2.3h-2c-1.6 0-2.4.8-2.3 2.4v11c0 .8.2 1.5.6 1.8l1.6 1 8.8 5.3c.6.5 1 1 1.5 1.3l1 1.2.3 1.5v13c0 6-2.7 9-8.5 9H582c-5.7 0-8.5-3.3-8.5-9.8v-4h7v5.6c0 1.5.8 2.3 2.2 2.3h3c1.5 0 2.2-.7 2-2.2V424c0-1 0-1.6-.4-2-.2-.3-.6-.6-1.2-1l-9-5.5-1.8-1.5-1-1.4-.3-1.5V399c0-6 2.8-9.2 8.4-9.2h4c5.6 0 8.4 3 8.4 9v7.5h-7zM601 443v-53.2h7V443h-7zM623.4 443c-5.7 0-8.6-3-8.6-9v-35c0-6 2.8-9.2 8.5-9.2h6c5.8 0 8.6 3 8.6 9V434c0 6-3 9-8.7 9h-6zm5-6c1.6 0 2.4-.8 2.4-2.7v-35.8c0-1.8-1-2.8-2.8-2.8h-3.4c-1.8 0-2.7 1-2.7 2.8v35.8c0 2 .8 2.8 2.7 2.8h3.7zM659.3 389.8h7V443h-7v-10.6l-7.6-24.2V443h-7v-53.2h7l7.6 25.7v-25.7z"/>
    </g>
    <g class="text">
      <path d="M67.5 144.4V97.7h13.8v5.2h-7.5v16h7.5v5h-7.5v15.2h7.5v5.2H67.5zM98.3 112.2V105c0-1.4-.7-2-2-2h-1.8c-1.5 0-2 .6-2 2v9.4c0 1 0 1.5.5 1.8l1.3.8 8 4.7c.4.4 1 .7 1.2 1l.8 1 .4 1.4v11.6c0 5.2-2.5 7.8-7.5 7.8h-3.8c-5 0-7.5-2.8-7.5-8.6v-3.5h6v5c0 1.3.8 2 2 2h2.7c1.2 0 2-.7 1.8-2v-9.5c0-1 0-1.5-.4-1.7l-1-.8-8-5c-.6-.4-1.2-.8-1.5-1.2l-1-1.3-.2-1.3v-10.6c0-5.4 2.4-8 7.4-8H97c5 0 7.5 2.6 7.5 8v6.4h-6.2zM122.3 112.2V105c0-1.4-.6-2-2-2h-1.8c-1.4 0-2 .6-2 2v9.4c0 1 .2 1.5.6 1.8l1.4.8 7.8 4.7 1.4 1 .8 1c0 .5.3 1 .3 1.4v11.6c0 5.2-2.4 7.8-7.4 7.8h-4c-4.8 0-7.3-2.8-7.3-8.6v-3.5h6.2v5c0 1.3.6 2 2 2h2.6c1.2 0 1.8-.7 1.8-2v-9.5c0-1-.2-1.5-.4-1.7l-1.2-.8-8-5-1.5-1.2-.8-1.3c-.2-.4-.3-.8-.3-1.3v-10.6c0-5.4 2.4-8 7.4-8h3.3c5 0 7.6 2.6 7.6 8v6.4h-6.3zM134.4 144.4V97.7H148v5.2h-7.4v16h7.5v5h-7.4v15.2h7.5v5.2h-13.6zM166 97.7h6.2v46.7H166V135l-6.7-21v30.4H153V97.7h6.3l6.7 22.6V97.7zM188 103v41.4h-6.2V103h-6v-5.3H194v5.2h-6zM197.6 144.4V97.7h6.2v46.7h-6.2zM215.6 144.4h-6.2v-38.7c0-5.3 2.4-8 7.4-8h4.7c5 0 7.5 2.7 7.5 8v38.7h-6.2v-17h-7.2v17zm7.2-22.7V106c0-1.7-1-2.6-2.8-2.6h-1.7c-1.8 0-2.7 1-2.7 2.7v15.7h7.2zM248.3 144.4h-13.8V97.7h6.3v41.5h7.5v5.2zM66.8 198.4v-35h4.7v35h-4.7zM85.6 163.4h4.7v35h-4.7v-7l-5-16v23H76v-35h4.6l5 17v-17zM105 179.3v4h-5.6v15h-4.7v-35H105v4h-5.6v12h5.6zM114.3 198.4c-3.7 0-5.6-2-5.6-6v-23c0-4 1.8-6 5.6-6h4c3.7 0 5.6 2 5.6 6v23c0 4-2 6-5.8 6h-4zm3.3-4c1 0 1.6-.5 1.6-1.7V169c0-1-.6-1.7-1.8-1.7h-2.2c-1.2 0-1.8.6-1.8 1.8v23.7c0 1.2.6 1.8 1.8 1.8h2.4zM139 198.4l-3.2-14H133v14h-4.7v-35h9.2c3.5 0 5.3 2 5.3 6v8.6c0 3-1 5-2.8 5.8l3.3 14.6H139zm-6-18h3c1.4 0 2-1 2-2.7v-7.5c0-1.7-.6-2.6-2-2.6h-3v12.7zM156.5 184l4.3-20.6h5.2v35h-4.7l.5-23-3.5 16.7h-3.6l-3.5-16.5.5 23H147v-35h5l4.5 20.5zM174.8 198.4H170v-29c0-4 2-6 5.8-6h3.5c3.7 0 5.6 2 5.6 6v29H180v-12.8h-5.4v12.8zm5.4-17v-11.7c0-1.4-.7-2-2-2h-1.3c-1.5 0-2.2.6-2.2 2v11.7h5.4zM196.5 167.3v31h-4.7v-31h-4.5v-4H201v4h-4.5zM203.7 198.4v-35h4.6v35h-4.6zM218.4 198.4c-3.8 0-5.7-2-5.7-6v-23c0-4 2-6 5.6-6h4c3.8 0 5.7 2 5.7 6v23c0 4-2 6-5.7 6h-4zm3.3-4c1 0 1.6-.5 1.6-1.7V169c0-1-.6-1.7-2-1.7h-2c-1.3 0-2 .6-2 1.8v23.7c0 1.2.7 1.8 2 1.8h2.4zM242 163.4h4.7v35H242v-7l-5-16v23h-4.6v-35h4.6l5 17v-17z"/>
    </g>
  </g>
</svg>
