<svg xmlns="http://www.w3.org/2000/svg" width="199.3" height="164.5" viewBox="0 0 199.3 164.5"><path d="M75.6 114c10.7 0 18.8 6.3 20.8 16.5 2 9-2.4 18.2-10.5 22.5-.6.3-1.6.2-1.5 1 0 .7.8 1 1.4 1.4 2.3 1.6 4.5.6 6.7-.7 2.5-1.4 2.5-1.5 4 1.2l.3.6c2 3.6 2 3.6-1.5 5.6-8 4.4-15.5 2.3-20-5.6-.7-1-1.3-1.2-2.3-1.3-8.3-1-14.5-5.3-17.5-13.7-5-14 5-27.7 20-27.7M65 134.4c0 6.5 4.8 11.8 10.7 11.8 6 0 10.6-5.2 10.6-11.7 0-6.5-4.7-11.7-10.5-11.7-6-.2-10.7 5-10.7 11.5M186 146.3c.2-1.2-.3-1.5-1.4-1.5H172c-1.8.2-2.3-.4-2.3-2.4v-26.7c0-1.4-.3-1.8-1.7-1.8h-7c-1.6-.2-1.8.4-1.8 1.8V152c0 1.3.3 1.8 1.6 1.8h23.7c1.3 0 1.7-.4 1.6-1.7v-5.7M112.2 115.3c0-1-.3-1.4-1.3-1.4h-7.6c-1.3 0-1.8.3-1.7 1.6V152c0 1.4.4 1.8 1.6 1.8h7.5c1 0 1.4-.4 1.4-1.5v-37M153.7 152.2l-6-9.4c-1-1.6-1.2-2.6.5-3.5h.2l.5-.6c.3-.5.8-.8 1.2-1.3 4.2-5.2 4-14-.2-18.6l-.3-.4s0 .2-.2.2l.2-.2-.6-.6-.3-.3c-2.4-2-5.2-3-8.2-3.3-6.7-.6-13.3 0-20-.3-1 0-1.2.4-1.2 1.3v37c0 1.5.7 1.3 2.5 1.4h6c1.5 0 2 0 2-1.3v-6.2c0-3.5 0-3.3 3.3-3.5 2.8-.2 4.8.4 5.7 3.2l3.8 7.2s.2 0 .3-.2l-.3.2c.4.7 1 .6 1.5.6h8.8c1.4 0 1.7-.3 1-1.6m-15.3-18c-2.6.5-5.2 0-8 .2-.8 0-.8-.6-.8-1.3v-7-2.6c0-1 .4-1 1.3-1h6.7c3.7 0 5.5 2.2 5.6 6 0 2.8-2 5.3-4.8 5.8M36.5 153.8c-6.2-.2-11.8-2-16.8-5.4-1-.7-1-1.3-.5-2.3 1-1.6 1.8-3.4 2.6-5.2.6-1 1-1 2-.4 3.5 2.6 7.4 4.5 11.8 5 1.2 0 2.5 0 3.6-.5 1-.5 2-1 2-2.3.2-1.3-.2-2.2-1.3-3-2-1-4-1.6-6.2-2.2-2.3-.6-4.5-1.2-6.7-2.3-3.7-1.8-6-4.8-6-9s1.7-7.6 5.4-9.7c4.6-2.7 9.7-3 14.8-2 3.4.4 6.6 1.5 9.6 3 1 .7 1.3 1.2.7 2.3-1 1.8-1.8 3.6-2.6 5.5-.6 1-1 1-2 .6-3.2-1.8-6.5-3.2-10.2-3.5h-2.5c-1 .2-2 .7-2.4 2-.4 1.3.2 2.3 1.3 3 1.3.7 2.7 1.2 4 1.6 2.6 1 5.2 1.5 7.6 2.5 4.3 2 7.2 5 7.2 10.2 0 4.8-2.6 8.5-7.4 10.5-2.7 1.2-5.5 1.5-8.3 1.6" class="st0"/><g><path d="M166 100.8c-4.8 0-9-.2-13-1.5-8-2.8-12.6-9-14.4-17-1.3-5.7-1.2-11.2.8-16.5 2.2-6 6.8-9.8 13-11.7 5-1.5 10.3-1.6 15.6-.7 3 .5 5.6 2 8 3.8 2 1.5 4 1.6 5 .4.8-1.2 0-3.2-2.2-4.5-14.2-8.5-35.5-7-46.4 10.8-2 3.3-3.8 6.7-5 10.3-4.6 12.5-13.6 20.4-25.4 25.7-1.6.7-3.2 1-5 1H44.8c-2.2 0-2.3 0-1.8-2.2.5-2.4 2-3.8 4.2-4.4 3.4-.8 7-.5 10.3-.6.7 0 1.6.3 1.8-.8.2-1 .2-2-.7-2.6-11-8-12.5-21.6-1.5-31 8.3-7 19.6-8 29-3 1.6.8 3 1.6 4.8 2 1 .2 1.7.3 2.3-.4 1-.8.6-1.7.3-2.5-.8-1.7-2.3-2.8-4-3.8-3.2-2-6.8-3-10.6-3.3-7.3-.7-14.4 0-20.8 4.3-2.4 1.6-4.2 3.8-6.2 5.7-5 4.7-10.6 7.6-17.5 7.4-3.4 0-6.4-1.3-9-3.4-2.5-2-5-4-7.5-6.3-2.3-2-4.7-3.2-8-2.7-2.3.4-4.8.5-7.2.2C0 52.8-.7 51.2.8 49c2-2.8 5-4 8.4-4.3 4.7-.4 9.5-.3 14.3-.7 8.2-.5 15.5-9.5 15-15.8 0-.5 0-1-.2-1.6-.2-1-.8-2-2-2-1.4 0-2 1-2 2.3-.4 8-6 12-13 13.4-5.4 1-10.7.7-16-.4-4-.7-6-4.3-4.6-8.4C3 24.6 6.5 18.3 12 13.3c2.5-2 5.3-3 8.3-3.3 1.6-.2 2.3-1 2.6-2.6.4-3.6 2.7-5.8 6-7 1.5-.7 2.5-.3 3.3 1C33.3 2.6 34 4 35 5.6c2.5 5 6.3 8.8 10.4 12.4 3.7 3.4 8.3 3.7 13 4 6.8 0 13.8.3 20.5 1.7 11.4 2.3 20.7 8 26.6 18.4 2 3.6 2.8 7.5 3 11.5.5 8.8-1 17-5.6 24.7-.7 1.2-1 2.6-.2 4 .6 1 1.6 1 2.6 1 1.2-.3 2-1 2.4-2 4.7-8.8 7-17.8 5-27.7-1.7-7.6-2-15.3.5-23 2.2-6.6 6.7-11.3 12.6-14.8 10.6-6.2 22.2-9.3 34.4-7 15 2.8 26.8 10.7 33.2 25 8 17.5 8.2 35.2-2.5 52.2-2.2 3.6-5.3 6.6-8.5 9.5-5 4.4-10.7 5.7-16.5 5.3m-150.7-70c1.8.2 3.5-1.5 3.6-3.3 0-2-1.7-3.6-3.6-3.6-2 0-3.6 1.4-3.6 3.3 0 2 1.5 3.6 3.5 3.6M150 119" class="st0"/></g></svg>
