<?xml version="1.0" encoding="utf-8"?>
<!-- Generator: Adobe Illustrator 15.0.0, SVG Export Plug-In . SVG Version: 6.00 Build 0)  -->
<!DOCTYPE svg PUBLIC "-//W3C//DTD SVG 1.1//EN" "http://www.w3.org/Graphics/SVG/1.1/DTD/svg11.dtd">
<svg version="1.1" id="button" xmlns="http://www.w3.org/2000/svg" xmlns:xlink="http://www.w3.org/1999/xlink" aria-labelledby="title" x="0px" y="0px"
	 width="163px" height="163px" viewBox="0 0 163 163" style="enable-background:new 0 0 163 163;" xml:space="preserve">
<title id="Sqirl Logo button"></title>
<g>
	<path class="st0" d="M34.401,61.162c-1.07-0.015-1.892,0.769-1.911,1.827c-0.019,1.032,0.814,1.9,1.846,1.921
		c1.009,0.021,1.905-0.842,1.924-1.854C36.279,62.023,35.448,61.178,34.401,61.162z"/>
	<path class="st0" d="M142.964,0H20.035C8.97,0,0,8.97,0,20.035v122.93C0,154.03,8.97,163,20.035,163h122.93
		C154.03,163,163,154.03,163,142.965V20.035C163,8.97,154.03,0,142.964,0z M128.444,94.302c-1.244,1.979-2.896,3.628-4.631,5.187
		c-2.616,2.351-5.734,3.041-8.807,2.784c-2.562,0.007-4.78-0.07-6.917-0.796c-4.408-1.497-6.78-4.727-7.78-9.133
		c-0.675-2.975-0.617-5.961,0.423-8.791c1.18-3.207,3.69-5.212,6.914-6.218c2.747-0.857,5.589-0.913,8.421-0.451
		c1.621,0.265,2.987,1.126,4.312,2.055c1.036,0.727,2.137,0.774,2.593,0.154c0.493-0.669,0.056-1.71-1.117-2.408
		c-7.6-4.523-18.99-3.75-24.853,5.837c-1.071,1.752-2.043,3.562-2.74,5.491c-2.4,6.641-7.225,10.856-13.488,13.68
		c-0.859,0.388-1.718,0.558-2.663,0.554c-9.334-0.021-18.668-0.013-28.002-0.013c-1.21,0-1.227-0.024-0.957-1.192
		c0.289-1.245,1.019-2.021,2.288-2.343c1.821-0.461,3.666-0.323,5.508-0.339c0.38-0.003,0.826,0.163,0.957-0.461
		c0.115-0.548,0.104-0.984-0.395-1.355c-5.818-4.347-6.649-11.576-0.789-16.583c4.373-3.737,10.451-4.379,15.497-1.627
		c0.812,0.444,1.633,0.846,2.539,1.067c0.457,0.111,0.894,0.137,1.24-0.228c0.391-0.41,0.28-0.89,0.086-1.344
		c-0.413-0.959-1.209-1.555-2.071-2.06c-1.769-1.038-3.712-1.579-5.733-1.75c-3.924-0.331-7.708,0.1-11.106,2.338
		c-1.273,0.839-2.233,2.008-3.311,3.052c-2.609,2.528-5.622,4.051-9.353,3.941c-1.823-0.054-3.41-0.67-4.803-1.79
		c-1.359-1.091-2.679-2.231-3.995-3.374c-1.234-1.071-2.532-1.726-4.28-1.457c-1.266,0.194-2.581,0.284-3.884,0.103
		c-1.385-0.193-1.771-1.081-0.934-2.226c1.103-1.509,2.616-2.163,4.466-2.311c2.557-0.206,5.12-0.197,7.679-0.364
		c4.393-0.287,8.292-5.11,7.989-8.493c-0.024-0.272-0.038-0.546-0.09-0.813c-0.122-0.616-0.395-1.142-1.12-1.1
		c-0.716,0.042-0.987,0.59-1.016,1.212c-0.203,4.299-3.132,6.523-6.972,7.24c-2.856,0.533-5.723,0.384-8.558-0.183
		c-2.062-0.412-3.213-2.337-2.468-4.506c1.276-3.714,3.121-7.133,6.14-9.78c1.252-1.097,2.76-1.619,4.382-1.814
		c0.848-0.101,1.226-0.489,1.355-1.354c0.29-1.941,1.516-3.123,3.306-3.828c0.786-0.31,1.332-0.116,1.75,0.538
		c0.496,0.776,0.986,1.561,1.412,2.376c1.374,2.624,3.4,4.701,5.584,6.628c1.977,1.743,4.463,1.93,6.939,2.007
		c3.692,0.115,7.39,0.244,11.012,0.985c6.132,1.254,11.119,4.275,14.265,9.868c1.052,1.871,1.501,3.935,1.622,6.081
		c0.265,4.685-0.578,9.105-2.986,13.186c-0.389,0.661-0.544,1.421-0.106,2.145c0.304,0.505,0.821,0.581,1.356,0.504
		c0.637-0.093,1.017-0.546,1.297-1.065c2.498-4.634,3.761-9.449,2.64-14.776c-0.858-4.076-0.987-8.203,0.318-12.259
		c1.151-3.576,3.55-6.11,6.728-7.946c5.731-3.311,11.909-4.996,18.476-3.766c7.996,1.499,14.328,5.747,17.722,13.304
		C133.97,75.759,134.146,85.228,128.444,94.302z"/>
</g>
</svg>
