<svg xmlns="http://www.w3.org/2000/svg" width="643" height="330.6" viewBox="0 0 199.3 164.5"><g fill="#f5f5f5"><path d="M166 100.8c-4.8 0-9-.2-13-1.5-8-2.8-12.6-9-14.4-17-1.3-5.7-1.2-11.2.8-16.5 2.2-6 6.8-9.8 13-11.7 5-1.5 10.3-1.6 15.6-.7 3 .5 5.6 2 8 3.8 2 1.5 4 1.6 5 .4.8-1.2 0-3.2-2.2-4.5-14.2-8.5-35.5-7-46.4 10.8-2 3.3-3.8 6.7-5 10.3-4.6 12.5-13.6 20.4-25.4 25.7-1.6.7-3.2 1-5 1H44.8c-2.2 0-2.3 0-1.8-2.2.5-2.4 2-3.8 4.2-4.4 3.4-.8 7-.5 10.3-.6.7 0 1.6.3 1.8-.8.2-1 .2-2-.7-2.6-11-8-12.5-21.6-1.5-31 8.3-7 19.6-8 29-3 1.6.8 3 1.6 4.8 2 1 .2 1.7.3 2.3-.4 1-.8.6-1.7.3-2.5-.8-1.7-2.3-2.8-4-3.8-3.2-2-6.8-3-10.6-3.3-7.3-.7-14.4 0-20.8 4.3-2.4 1.6-4.2 3.8-6.2 5.7-5 4.7-10.6 7.6-17.5 7.4-3.4 0-6.4-1.3-9-3.4-2.5-2-5-4-7.5-6.3-2.3-2-4.7-3.2-8-2.7-2.3.4-4.8.5-7.2.2C0 52.8-.7 51.2.8 49c2-2.8 5-4 8.4-4.3 4.7-.4 9.5-.3 14.3-.7 8.2-.5 15.5-9.5 15-15.8 0-.5 0-1-.2-1.6-.2-1-.8-2-2-2-1.4 0-2 1-2 2.3-.4 8-6 12-13 13.4-5.4 1-10.7.7-16-.4-4-.7-6-4.3-4.6-8.4C3 24.6 6.5 18.3 12 13.3c2.5-2 5.3-3 8.3-3.3 1.6-.2 2.3-1 2.6-2.6.4-3.6 2.7-5.8 6-7 1.5-.7 2.5-.3 3.3 1C33.3 2.6 34 4 35 5.6c2.5 5 6.3 8.8 10.4 12.4 3.7 3.4 8.3 3.7 13 4 6.8 0 13.8.3 20.5 1.7 11.4 2.3 20.7 8 26.6 18.4 2 3.6 2.8 7.5 3 11.5.5 8.8-1 17-5.6 24.7-.7 1.2-1 2.6-.2 4 .6 1 1.6 1 2.6 1 1.2-.3 2-1 2.4-2 4.7-8.8 7-17.8 5-27.7-1.7-7.6-2-15.3.5-23 2.2-6.6 6.7-11.3 12.6-14.8 10.6-6.2 22.2-9.3 34.4-7 15 2.8 26.8 10.7 33.2 25 8 17.5 8.2 35.2-2.5 52.2-2.2 3.6-5.3 6.6-8.5 9.5-5 4.4-10.7 5.7-16.5 5.3m-150.7-70c1.8.2 3.5-1.5 3.6-3.3 0-2-1.7-3.6-3.6-3.6-2 0-3.6 1.4-3.6 3.3 0 2 1.5 3.6 3.5 3.6M150 119" class="st0"/></g></svg>
