<?xml version="1.0" encoding="utf-8"?>
<!-- Generator: Adobe Illustrator 15.0.0, SVG Export Plug-In . SVG Version: 6.00 Build 0)  -->
<!DOCTYPE svg PUBLIC "-//W3C//DTD SVG 1.1//EN" "http://www.w3.org/Graphics/SVG/1.1/DTD/svg11.dtd">
<svg version="1.1" xmlns="http://www.w3.org/2000/svg" xmlns:xlink="http://www.w3.org/1999/xlink" aria-labelledby="title" x="0px" y="0px"
	 width="199.338px" height="164.494px" viewBox="0 0 199.338 164.494" style="enable-background:new 0 0 199.338 164.494;"
	 xml:space="preserve">
<title id="Sqirl Logo"></title>
<g id="text">
	<g>
		<path class="st0" d="M75.62,113.884c10.662-0.012,18.777,6.453,20.818,16.583c1.828,9.074-2.457,18.227-10.525,22.55
			c-0.512,0.273-1.473,0.224-1.392,1.066c0.06,0.639,0.81,0.983,1.348,1.335c2.438,1.595,4.661,0.572,6.83-0.684
			c2.524-1.463,2.511-1.487,3.951,1.133c0.127,0.231,0.259,0.459,0.387,0.689c2.042,3.672,2.042,3.672-1.559,5.67
			c-7.937,4.406-15.484,2.321-20.106-5.651c-0.561-0.967-1.215-1.152-2.137-1.279c-8.306-1.141-14.57-5.298-17.504-13.73
			C50.837,127.496,60.684,113.897,75.62,113.884 M65.12,134.525c-0.01,6.52,4.696,11.776,10.571,11.809
			c5.866,0.033,10.578-5.206,10.592-11.774c0.013-6.434-4.656-11.647-10.474-11.696C69.874,122.812,65.13,127.988,65.12,134.525"/>
		<path class="st0" d="M186.113,146.312c0.063-1.24-0.396-1.519-1.534-1.502c-4.149,0.06-8.304-0.084-12.449,0.071
			c-1.93,0.073-2.472-0.444-2.446-2.441c0.115-8.922,0.026-17.849,0.076-26.771c0.008-1.342-0.364-1.818-1.723-1.761
			c-2.358,0.1-4.729,0.119-7.085-0.005c-1.512-0.08-1.789,0.521-1.774,1.907c0.068,6.013,0.03,12.026,0.03,18.041
			c0,6.079,0.03,12.157-0.025,18.235c-0.011,1.231,0.279,1.706,1.583,1.697c7.917-0.052,15.836-0.052,23.753,0.002
			c1.277,0.008,1.656-0.395,1.594-1.657C186.014,150.193,186.012,148.246,186.113,146.312"/>
		<path class="st0" d="M112.205,115.259c0.002-1.001-0.328-1.371-1.331-1.35c-2.489,0.052-4.984,0.082-7.474-0.01
			c-1.322-0.049-1.757,0.353-1.741,1.733c0.068,6.084,0.029,12.169,0.029,18.253c0,6.085,0.036,12.171-0.028,18.254
			c-0.014,1.3,0.393,1.683,1.634,1.643c2.49-0.08,4.984-0.07,7.476-0.002c1.084,0.029,1.441-0.333,1.438-1.432
			C112.181,139.985,112.183,127.622,112.205,115.259"/>
		<path class="st0" d="M153.692,152.217c-2.025-3.121-3.868-6.37-6.005-9.408c-1.105-1.572-1.143-2.576,0.493-3.463
			c0.024-0.023,0.055-0.039,0.083-0.06c0.03-0.029,0.066-0.056,0.105-0.078c0.014-0.013,0.028-0.026,0.044-0.037
			c0.162-0.155,0.324-0.31,0.487-0.464c0.43-0.476,0.861-0.787,1.341-1.356c4.157-5.104,4.057-14.089-0.207-18.508c0,0,0,0-0.001,0
			c-0.126-0.132-0.251-0.266-0.377-0.397c-0.045,0.053-0.089,0.107-0.132,0.162c0.043-0.054,0.087-0.109,0.132-0.162
			c-0.199-0.211-0.397-0.422-0.596-0.632h-0.001c-0.124-0.104-0.247-0.21-0.371-0.316c-2.359-2.086-5.215-2.982-8.234-3.271
			c-6.622-0.632-13.269-0.146-19.902-0.306c-1.086-0.026-1.237,0.486-1.235,1.412c0.02,12.351,0.025,24.7-0.009,37.051
			c-0.005,1.462,0.652,1.241,2.487,1.316c2.063,0.085,4.064-0.048,6.089,0.043c1.428,0.063,1.877-0.132,1.846-1.299
			c-0.059-2.068-0.018-4.138-0.018-6.207c0-3.503,0.016-3.305,3.378-3.564c2.744-0.211,4.702,0.381,5.57,3.219l0.001-0.001
			c1.28,2.451,2.56,4.903,3.84,7.354c0.098-0.073,0.187-0.155,0.269-0.246c-0.081,0.091-0.171,0.173-0.269,0.246
			c0.354,0.638,0.963,0.516,1.524,0.517c2.927,0.004,5.854-0.046,8.781,0.021C154.238,153.816,154.511,153.481,153.692,152.217
			 M138.539,134.185c-2.612,0.473-5.271,0.102-7.907,0.199c-0.956,0.035-0.973-0.571-0.967-1.268c0.02-2.325-0.008-4.65,0.012-6.976
			c0.009-0.9-0.034-1.799-0.03-2.699c0.004-0.901,0.415-1.15,1.333-1.124c2.23,0.062,4.468-0.05,6.696,0.053
			c3.691,0.172,5.555,2.213,5.625,5.963C143.355,131.197,141.322,133.681,138.539,134.185"/>
		<line class="st0" x1="149.872" y1="118.971" x2="149.872" y2="118.971"/>
		<path class="st0" d="M36.472,153.785c-6.176-0.182-11.745-1.915-16.757-5.418c-0.969-0.678-1.143-1.238-0.534-2.286
			c0.988-1.699,1.859-3.472,2.664-5.265c0.514-1.146,0.956-1.159,1.933-0.426c3.518,2.644,7.402,4.496,11.865,4.882
			c1.206,0.104,2.419,0.094,3.593-0.327c1.102-0.396,1.901-1.053,2.042-2.273c0.143-1.244-0.301-2.222-1.391-2.911
			c-1.866-1.181-3.996-1.64-6.074-2.229c-2.27-0.644-4.534-1.282-6.679-2.289c-3.873-1.819-6.119-4.808-6.188-9.093
			c-0.067-4.187,1.76-7.503,5.439-9.65c4.65-2.713,9.709-2.883,14.857-2.113c3.364,0.504,6.547,1.611,9.562,3.215
			c1.07,0.57,1.326,1.109,0.714,2.225c-0.978,1.781-1.864,3.622-2.649,5.496c-0.449,1.069-0.908,1.062-1.828,0.568
			c-3.218-1.725-6.588-3.057-10.271-3.384c-0.819-0.073-1.662-0.023-2.479,0.08c-1.135,0.145-2.129,0.613-2.4,1.849
			c-0.296,1.351,0.305,2.345,1.459,3.04c1.268,0.764,2.662,1.221,4.069,1.64c2.503,0.745,5.045,1.378,7.452,2.414
			c4.468,1.924,7.319,5.022,7.329,10.146c0.009,4.825-2.59,8.525-7.391,10.573C42.115,153.398,39.269,153.686,36.472,153.785"/>
	</g>
</g>
<g id="icon">
	<g>
		<path class="st0" d="M166.03,100.75c-4.788,0.013-8.934-0.131-12.928-1.488c-8.239-2.798-12.671-8.835-14.54-17.069
			c-1.261-5.557-1.154-11.141,0.791-16.43c2.204-5.993,6.896-9.741,12.921-11.62c5.135-1.602,10.445-1.707,15.74-0.843
			c3.027,0.494,5.582,2.103,8.056,3.839c1.937,1.359,3.995,1.447,4.847,0.289c0.92-1.25,0.104-3.197-2.088-4.501
			c-14.204-8.453-35.493-7.008-46.449,10.909c-2.002,3.275-3.818,6.659-5.12,10.262c-4.488,12.413-13.505,20.294-25.212,25.569
			c-1.605,0.725-3.21,1.04-4.978,1.036c-17.445-0.041-34.89-0.025-52.336-0.026c-2.261,0-2.292-0.045-1.787-2.227
			c0.539-2.329,1.904-3.779,4.276-4.379c3.403-0.862,6.851-0.605,10.293-0.634c0.712-0.006,1.545,0.306,1.789-0.86
			c0.215-1.025,0.194-1.839-0.738-2.536c-10.873-8.122-12.427-21.635-1.474-30.993c8.173-6.984,19.532-8.184,28.962-3.04
			c1.519,0.828,3.054,1.581,4.746,1.993c0.855,0.209,1.671,0.257,2.319-0.425c0.73-0.768,0.525-1.664,0.16-2.512
			c-0.772-1.793-2.259-2.906-3.87-3.851c-3.307-1.939-6.938-2.951-10.715-3.27c-7.334-0.619-14.407,0.187-20.757,4.37
			c-2.379,1.567-4.174,3.753-6.188,5.704c-4.878,4.724-10.507,7.571-17.481,7.364c-3.407-0.101-6.373-1.252-8.978-3.344
			c-2.538-2.04-5.005-4.17-7.465-6.305c-2.307-2.003-4.733-3.227-8.001-2.725c-2.365,0.364-4.824,0.532-7.257,0.193
			c-2.589-0.36-3.312-2.021-1.748-4.159c2.063-2.821,4.891-4.043,8.348-4.321c4.779-0.384,9.569-0.368,14.351-0.68
			c8.211-0.537,15.498-9.551,14.932-15.873c-0.045-0.507-0.07-1.021-0.168-1.519c-0.228-1.152-0.737-2.135-2.094-2.056
			c-1.337,0.078-1.844,1.103-1.899,2.264c-0.378,8.035-5.852,12.192-13.031,13.532c-5.337,0.996-10.696,0.718-15.994-0.342
			c-3.853-0.77-6.004-4.368-4.611-8.422c2.385-6.942,5.833-13.332,11.475-18.278c2.34-2.051,5.159-3.026,8.19-3.39
			c1.585-0.19,2.291-0.914,2.532-2.531c0.541-3.627,2.833-5.836,6.179-7.155c1.468-0.578,2.49-0.216,3.271,1.006
			c0.926,1.451,1.841,2.917,2.639,4.441c2.567,4.905,6.353,8.786,10.436,12.387c3.694,3.258,8.341,3.607,12.969,3.751
			c6.899,0.216,13.812,0.457,20.581,1.841c11.461,2.343,20.781,7.99,26.661,18.443c1.967,3.497,2.806,7.356,3.032,11.366
			c0.494,8.756-1.081,17.018-5.58,24.645c-0.729,1.235-1.018,2.655-0.201,4.009c0.568,0.943,1.537,1.086,2.536,0.941
			c1.19-0.174,1.899-1.021,2.423-1.992c4.67-8.66,7.029-17.661,4.934-27.617c-1.604-7.618-1.843-15.33,0.597-22.911
			c2.152-6.684,6.634-11.419,12.573-14.85c10.713-6.19,22.257-9.339,34.531-7.039c14.943,2.801,26.777,10.74,33.121,24.865
			c7.922,17.643,8.251,35.339-2.409,52.296c-2.325,3.698-5.409,6.781-8.653,9.695C177.6,99.939,171.772,101.231,166.03,100.75
			 M15.259,30.919c1.886,0.039,3.56-1.574,3.595-3.465c0.037-1.928-1.516-3.511-3.473-3.539c-2.001-0.03-3.536,1.437-3.572,3.413
			C11.773,29.258,13.331,30.879,15.259,30.919"/>
		<line class="st0" x1="149.872" y1="118.971" x2="149.872" y2="118.971"/>
	</g>
</g>
</svg>
