<svg version="1.1" xmlns="http://www.w3.org/2000/svg" xmlns:xlink="http://www.w3.org/1999/xlink" x="0px" y="0px"
	 width="889.281px" height="567.099px" viewBox="0 0 889.281 567.099" enable-background="new 0 0 889.281 567.099"
	 xml:space="preserve">
<g id="api">
	<path class="api-path" d="M369.323,472.304
		c0,0,9.151,57.929-54.248,57.929s-214.274,0-214.274,0s-43.86-4.714-43.86-43.86s0-185.552,0-185.552s-3.269-66.975,66.975-66.975
		s68.205,68.205,68.205,68.205v46.483c0,0-4.325,47.224,47.223,47.224s135.208,0,135.208,0V230.232c0,0,4.575-57.517-57.517-57.517
		s-58.17,0-58.17,0s-63.306-3.082-63.306-63.306s0-73.949,0-73.949s-3.268-32.96,32.96-32.96s166.444,0,166.444,0
		s43.848-0.819,43.848,43.848s0,305.452,0,305.452h100.445V154.415c0,0-14.623-78.517,78.517-78.517s148.935,0,148.935,0
		s67.577-0.878,67.577,67.578c0,22.704,0,22.704,0,22.704s-3.267,68.102-68.102,68.102s-45.881,0-45.881,0
		s-64.312-6.543-64.312,64.312c0,70.853-91.897,72.048-91.898,72.048v40.281l98.04,0.178c0,0,52.525,7.844,52.525-52.525
		s0-35.532,0-35.532s0.653-42.038,42.038-42.038s41.385,0,41.385,0s34.091,1.308,34.091,34.091s0,189.646,0,189.646
		s0.655,59.856-59.855,59.856s-198.678,0-198.678,0s-37.969-1.048-37.969-37.969s0-66.332,0-66.332"/>
</g>
<g id="api-graphics">
	<path fill="#EFEFEF" d="M475.136,480.412h-21.964h-10.824h-21.964c0,0,1.849,30.496-2.296,34.924l25.824,0.415l0.007,0.122
		l3.841-0.061l3.842,0.061l0.006-0.122l25.823-0.415C473.289,510.908,475.136,480.412,475.136,480.412z"/>
	<path fill="#EFEFEF" d="M205.05,113.417h-9.102h-4.485h-9.102c0,0,0.766,12.638-0.952,14.473l10.702,0.172l0.003,0.051l1.592-0.025
		l1.592,0.025l0.002-0.051l10.702-0.172C204.284,126.054,205.05,113.417,205.05,113.417z"/>
	<path fill="#EFEFEF" d="M701.325,113.394h-9.102h-4.486h-9.102c0,0,0.766,12.638-0.951,14.473l10.701,0.172l0.003,0.051
		l1.592-0.025l1.593,0.025l0.002-0.051l10.701-0.172C700.559,126.032,701.325,113.394,701.325,113.394z"/>
	<path fill="#EFEFEF" d="M843.807,438.579h-9.102h-4.486h-9.102c0,0,0.766,12.638-0.951,14.473l10.701,0.172l0.003,0.051
		l1.592-0.025l1.593,0.025l0.002-0.051l10.701-0.172C843.042,451.217,843.807,438.579,843.807,438.579z"/>
	<g>
		<linearGradient id="SVGID_1_" gradientUnits="userSpaceOnUse" x1="416.9766" y1="515.8418" x2="416.9766" y2="515.2676">
			<stop  offset="0" style="stop-color:#000000;stop-opacity:0.6"/>
			<stop  offset="0.0896" style="stop-color:#000000;stop-opacity:0.5462"/>
			<stop  offset="1" style="stop-color:#000000;stop-opacity:0"/>
		</linearGradient>
		<path fill="url(#SVGID_1_)" d="M418.177,515.307l-2.4-0.039C416.743,516.058,417.532,515.995,418.177,515.307z"/>
		<linearGradient id="SVGID_2_" gradientUnits="userSpaceOnUse" x1="447.8047" y1="515.8447" x2="447.8047" y2="480.4404">
			<stop  offset="0" style="stop-color:#000000;stop-opacity:0.6"/>
			<stop  offset="0.0896" style="stop-color:#000000;stop-opacity:0.5462"/>
			<stop  offset="1" style="stop-color:#000000;stop-opacity:0"/>
		</linearGradient>
		<path fill="url(#SVGID_2_)" d="M475.139,480.44h-21.931h-10.807H420.47c0,0,1.846,30.445-2.293,34.866l25.787,0.415l0.005,0.123
			l3.835-0.062l3.836,0.062l0.005-0.123l25.787-0.415C473.293,510.886,475.139,480.44,475.139,480.44z"/>
		<linearGradient id="SVGID_3_" gradientUnits="userSpaceOnUse" x1="478.6323" y1="515.8418" x2="478.6323" y2="515.2676">
			<stop  offset="0" style="stop-color:#000000;stop-opacity:0.6"/>
			<stop  offset="0.0896" style="stop-color:#000000;stop-opacity:0.5462"/>
			<stop  offset="1" style="stop-color:#000000;stop-opacity:0"/>
		</linearGradient>
		<path fill="url(#SVGID_3_)" d="M477.432,515.307c0.646,0.688,1.435,0.751,2.4-0.039L477.432,515.307z"/>
	</g>
	<path fill="#FFFFFF" d="M584.706,478.608c0,3.35-2.702,6.063-6.035,6.063H317.541c-3.333,0-6.035-2.714-6.035-6.063V302.956
		c0-3.35,2.702-6.063,6.035-6.063H578.67c3.333,0,6.035,2.714,6.035,6.063V478.608z"/>
	<g>
		<path fill="#E15927" d="M584.706,302.955c0-3.349-2.702-6.063-6.035-6.063H317.541c-3.333,0-6.035,2.714-6.035,6.063v156.98
			h273.199V302.955z"/>
		<path fill="#DCDDDD" d="M317.541,484.672H578.67c3.333,0,6.035-2.714,6.035-6.063v-18.674H311.506v18.674
			C311.506,481.958,314.208,484.672,317.541,484.672z"/>
	</g>
	<rect x="323.013" y="307.605" fill="#FFFFFF" width="250.626" height="141.588"/>
	<g class="api-sqirl">
		<g id="text">
			<g>
				<path fill="#E15927" d="M433.807,399.737c6.072-0.008,10.693,3.675,11.856,9.442c1.041,5.169-1.4,10.382-5.995,12.843
					c-0.291,0.155-0.839,0.128-0.792,0.607c0.034,0.363,0.461,0.561,0.768,0.76c1.388,0.908,2.654,0.326,3.89-0.39
					c1.437-0.833,1.43-0.846,2.25,0.646c0.073,0.131,0.148,0.261,0.221,0.392c1.163,2.091,1.163,2.091-0.889,3.229
					c-4.52,2.51-8.817,1.322-11.45-3.217c-0.319-0.551-0.692-0.656-1.218-0.729c-4.73-0.648-8.297-3.017-9.968-7.818
					C419.693,407.489,425.301,399.745,433.807,399.737 M427.828,411.492c-0.006,3.713,2.674,6.705,6.02,6.725
					c3.34,0.02,6.023-2.965,6.032-6.704c0.007-3.666-2.652-6.634-5.965-6.662C430.535,404.821,427.833,407.769,427.828,411.492"/>
				<path fill="#E15927" d="M496.732,418.204c0.036-0.706-0.226-0.864-0.872-0.855c-2.364,0.035-4.73-0.049-7.091,0.041
					c-1.1,0.041-1.408-0.253-1.393-1.391c0.064-5.08,0.015-10.164,0.044-15.245c0.004-0.765-0.208-1.036-0.983-1.003
					c-1.343,0.057-2.691,0.066-4.033-0.004c-0.861-0.045-1.021,0.298-1.01,1.086c0.037,3.426,0.016,6.85,0.016,10.274
					c0,3.463,0.017,6.925-0.014,10.385c-0.007,0.701,0.159,0.972,0.901,0.966c4.508-0.028,9.019-0.028,13.526,0.002
					c0.728,0.004,0.944-0.226,0.908-0.943C496.676,420.414,496.675,419.307,496.732,418.204"/>
				<path fill="#E15927" d="M454.642,400.52c0.001-0.57-0.187-0.78-0.758-0.769c-1.417,0.029-2.838,0.047-4.257-0.005
					c-0.752-0.028-1,0.2-0.991,0.986c0.039,3.464,0.017,6.93,0.017,10.395c0,3.466,0.021,6.931-0.016,10.396
					c-0.008,0.739,0.224,0.958,0.93,0.935c1.419-0.045,2.839-0.039,4.258-0.001c0.617,0.018,0.82-0.188,0.819-0.815
					C454.628,414.602,454.63,407.561,454.642,400.52"/>
				<path fill="#E15927" d="M478.269,421.566c-1.153-1.775-2.203-3.628-3.421-5.356c-0.628-0.895-0.649-1.468,0.281-1.973
					c0.015-0.013,0.032-0.021,0.047-0.034c0.018-0.018,0.039-0.032,0.061-0.045c0.008-0.008,0.016-0.014,0.025-0.021
					c0.092-0.088,0.185-0.177,0.276-0.265c0.245-0.271,0.491-0.447,0.764-0.772c2.368-2.906,2.312-8.022-0.117-10.54l0,0
					c-0.073-0.075-0.144-0.151-0.216-0.227c-0.025,0.032-0.051,0.062-0.075,0.094c0.024-0.031,0.05-0.062,0.075-0.094
					c-0.112-0.119-0.227-0.239-0.339-0.36h-0.001c-0.07-0.058-0.141-0.118-0.211-0.179c-1.344-1.188-2.971-1.698-4.689-1.862
					c-3.771-0.36-7.556-0.083-11.334-0.174c-0.618-0.016-0.705,0.275-0.704,0.803c0.012,7.034,0.014,14.067-0.005,21.101
					c-0.003,0.834,0.372,0.708,1.416,0.75c1.175,0.048,2.315-0.028,3.468,0.023c0.814,0.036,1.069-0.075,1.052-0.739
					c-0.034-1.178-0.01-2.356-0.01-3.535c0-1.995,0.009-1.881,1.923-2.029c1.563-0.12,2.679,0.217,3.173,1.833h0.001
					c0.729,1.396,1.457,2.793,2.187,4.188c0.056-0.041,0.106-0.088,0.153-0.14c-0.046,0.052-0.098,0.099-0.153,0.14
					c0.202,0.364,0.548,0.295,0.868,0.295c1.667,0.003,3.333-0.026,5.002,0.011C478.579,422.478,478.736,422.288,478.269,421.566
					 M469.639,411.298c-1.487,0.271-3.002,0.059-4.503,0.113c-0.544,0.021-0.554-0.325-0.551-0.722
					c0.011-1.323-0.004-2.648,0.007-3.973c0.005-0.513-0.019-1.025-0.017-1.538c0.002-0.512,0.235-0.654,0.759-0.64
					c1.27,0.036,2.545-0.028,3.813,0.031c2.104,0.098,3.165,1.259,3.204,3.395C472.381,409.597,471.223,411.012,469.639,411.298"/>
				<line fill="#E15927" x1="476.093" y1="402.634" x2="476.093" y2="402.634"/>
				<path fill="#E15927" d="M411.512,422.46c-3.517-0.104-6.688-1.09-9.543-3.084c-0.551-0.388-0.65-0.706-0.304-1.303
					c0.563-0.968,1.059-1.979,1.518-2.999c0.292-0.652,0.544-0.66,1.1-0.242c2.004,1.506,4.216,2.561,6.758,2.78
					c0.687,0.06,1.377,0.054,2.045-0.188c0.628-0.225,1.083-0.599,1.163-1.293c0.082-0.709-0.171-1.266-0.792-1.657
					c-1.063-0.674-2.276-0.936-3.458-1.271c-1.293-0.366-2.582-0.73-3.804-1.303c-2.205-1.036-3.484-2.738-3.524-5.179
					c-0.038-2.386,1.002-4.272,3.098-5.496c2.648-1.544,5.529-1.642,8.461-1.203c1.916,0.287,3.729,0.918,5.445,1.831
					c0.609,0.324,0.755,0.631,0.407,1.268c-0.557,1.014-1.062,2.062-1.508,3.13c-0.256,0.608-0.518,0.604-1.042,0.322
					c-1.833-0.981-3.751-1.74-5.85-1.927c-0.466-0.042-0.946-0.014-1.411,0.045c-0.647,0.083-1.212,0.35-1.367,1.054
					c-0.169,0.77,0.174,1.335,0.831,1.731c0.722,0.436,1.516,0.695,2.317,0.933c1.425,0.425,2.873,0.785,4.244,1.376
					c2.544,1.096,4.168,2.86,4.174,5.778c0.005,2.748-1.476,4.854-4.209,6.021C414.726,422.24,413.105,422.404,411.512,422.46"/>
			</g>
		</g>
		<g id="icon">
			<g>
				<path fill="#E15927" d="M485.295,392.257c-2.727,0.007-5.088-0.074-7.362-0.848c-4.693-1.594-7.216-5.03-8.281-9.721
					c-0.718-3.164-0.656-6.345,0.451-9.356c1.255-3.413,3.927-5.547,7.359-6.617c2.923-0.912,5.948-0.972,8.964-0.48
					c1.724,0.281,3.179,1.197,4.587,2.187c1.103,0.774,2.275,0.824,2.761,0.164c0.523-0.712,0.059-1.82-1.188-2.563
					c-8.091-4.813-20.215-3.99-26.454,6.213c-1.14,1.864-2.174,3.793-2.915,5.845c-2.556,7.069-7.691,11.558-14.358,14.562
					c-0.915,0.412-1.828,0.592-2.835,0.59c-9.935-0.023-19.87-0.014-29.805-0.016c-1.288,0-1.306-0.025-1.018-1.268
					c0.307-1.326,1.084-2.153,2.436-2.494c1.938-0.49,3.902-0.344,5.862-0.361c0.406-0.003,0.879,0.175,1.019-0.489
					c0.123-0.584,0.111-1.048-0.42-1.444c-6.192-4.625-7.077-12.321-0.839-17.65c4.655-3.977,11.124-4.661,16.494-1.73
					c0.865,0.472,1.739,0.899,2.703,1.135c0.487,0.119,0.952,0.146,1.321-0.242c0.415-0.438,0.299-0.948,0.091-1.431
					c-0.44-1.021-1.287-1.655-2.204-2.193c-1.883-1.104-3.951-1.681-6.102-1.862c-4.177-0.353-8.205,0.106-11.821,2.489
					c-1.355,0.892-2.377,2.137-3.524,3.247c-2.777,2.691-5.983,4.313-9.955,4.195c-1.941-0.059-3.63-0.714-5.113-1.904
					c-1.445-1.161-2.851-2.376-4.251-3.592c-1.314-1.14-2.695-1.838-4.557-1.551c-1.347,0.207-2.748,0.303-4.132,0.109
					c-1.475-0.205-1.887-1.151-0.996-2.369c1.175-1.606,2.786-2.302,4.754-2.46c2.722-0.22,5.449-0.209,8.173-0.388
					c4.676-0.306,8.827-5.438,8.504-9.039c-0.026-0.289-0.041-0.582-0.096-0.866c-0.13-0.655-0.42-1.216-1.192-1.17
					c-0.762,0.044-1.05,0.628-1.082,1.289c-0.215,4.577-3.333,6.942-7.421,7.706c-3.04,0.568-6.092,0.409-9.109-0.194
					c-2.194-0.438-3.419-2.488-2.626-4.796c1.358-3.954,3.322-7.593,6.536-10.409c1.333-1.169,2.938-1.725,4.664-1.931
					c0.903-0.108,1.305-0.521,1.443-1.442c0.308-2.064,1.613-3.323,3.519-4.074c0.836-0.329,1.417-0.124,1.863,0.573
					c0.527,0.826,1.048,1.659,1.502,2.528c1.462,2.794,3.618,5.004,5.943,7.056c2.104,1.854,4.75,2.054,7.386,2.136
					c3.929,0.122,7.866,0.259,11.721,1.048c6.527,1.334,11.834,4.551,15.184,10.503c1.12,1.991,1.598,4.189,1.727,6.474
					c0.28,4.986-0.616,9.691-3.178,14.034c-0.415,0.704-0.58,1.513-0.115,2.284c0.324,0.538,0.876,0.618,1.445,0.536
					c0.677-0.1,1.081-0.581,1.379-1.135c2.66-4.932,4.004-10.059,2.81-15.727c-0.914-4.34-1.05-8.732,0.34-13.049
					c1.226-3.807,3.778-6.503,7.16-8.457c6.102-3.524,12.676-5.318,19.665-4.009c8.512,1.596,15.25,6.116,18.864,14.16
					c4.511,10.048,4.698,20.125-1.372,29.783c-1.325,2.105-3.081,3.86-4.928,5.521C491.884,391.795,488.566,392.531,485.295,392.257
					 M399.431,352.488c1.074,0.022,2.028-0.896,2.048-1.974c0.02-1.098-0.864-1.998-1.979-2.016
					c-1.14-0.017-2.014,0.819-2.034,1.944C397.446,351.542,398.334,352.466,399.431,352.488"/>
				<line fill="#E15927" x1="476.093" y1="402.634" x2="476.093" y2="402.634"/>
			</g>
		</g>
	</g>
	<circle fill="#9FA0A0" cx="447.988" cy="468.941" r="3.931"/>
	<rect x="403.237" y="513.892" fill="#DCDDDD" width="88.533" height="3.906"/>
	<g opacity="0.25">
		<path fill="#FFFFFF" d="M584.706,478.608V302.956c0-3.35-2.703-6.063-6.035-6.063H394.964l146.535,187.779h37.172
			C582.002,484.672,584.706,481.958,584.706,478.608z"/>
		<path opacity="0.1" fill="#FFFFFF" d="M584.706,478.608V302.956c0-3.35-2.703-6.063-6.035-6.063H394.964l146.535,187.779h37.172
			C582.002,484.672,584.706,481.958,584.706,478.608z"/>
	</g>
	<g>
		<g>
			<g>
				<linearGradient id="SVGID_4_" gradientUnits="userSpaceOnUse" x1="819.6685" y1="453.2725" x2="819.6685" y2="453.0332">
					<stop  offset="0" style="stop-color:#000000;stop-opacity:0.6"/>
					<stop  offset="0.0896" style="stop-color:#000000;stop-opacity:0.5462"/>
					<stop  offset="1" style="stop-color:#000000;stop-opacity:0"/>
				</linearGradient>
				<path fill="url(#SVGID_4_)" d="M820.167,453.052l-0.995-0.019C819.572,453.363,819.899,453.336,820.167,453.052z"/>
				<linearGradient id="SVGID_5_" gradientUnits="userSpaceOnUse" x1="832.4634" y1="453.2744" x2="832.4634" y2="438.5801">
					<stop  offset="0" style="stop-color:#000000;stop-opacity:0.6"/>
					<stop  offset="0.0896" style="stop-color:#000000;stop-opacity:0.5462"/>
					<stop  offset="1" style="stop-color:#000000;stop-opacity:0"/>
				</linearGradient>
				<path fill="url(#SVGID_5_)" d="M843.808,438.58h-9.103h-4.485h-9.102c0,0,0.766,12.637-0.952,14.472l10.702,0.172l0.002,0.051
					l1.593-0.025l1.592,0.025l0.002-0.051l10.702-0.172C843.042,451.217,843.808,438.58,843.808,438.58z"/>
				<linearGradient id="SVGID_6_" gradientUnits="userSpaceOnUse" x1="845.2573" y1="453.2725" x2="845.2573" y2="453.0332">
					<stop  offset="0" style="stop-color:#000000;stop-opacity:0.6"/>
					<stop  offset="0.0896" style="stop-color:#000000;stop-opacity:0.5462"/>
					<stop  offset="1" style="stop-color:#000000;stop-opacity:0"/>
				</linearGradient>
				<path fill="url(#SVGID_6_)" d="M844.759,453.052c0.268,0.284,0.597,0.312,0.996-0.019L844.759,453.052z"/>
			</g>
			<path fill="#FFFFFF" d="M889.281,437.821c0,1.388-1.121,2.514-2.504,2.514H778.399c-1.383,0-2.504-1.126-2.504-2.514v-72.902
				c0-1.391,1.121-2.517,2.504-2.517h108.378c1.383,0,2.504,1.126,2.504,2.517V437.821z"/>
			<g>
				<path d="M889.281,364.919c0-1.391-1.121-2.517-2.504-2.517H778.399c-1.383,0-2.504,1.126-2.504,2.517v65.151h113.386V364.919z"
					/>
				<path fill="#DCDDDD" d="M778.399,440.335h108.378c1.383,0,2.504-1.126,2.504-2.514v-7.751H775.895v7.751
					C775.895,439.209,777.016,440.335,778.399,440.335z"/>
			</g>
			<rect x="780.671" y="366.849" fill="#70C090" width="104.018" height="58.764"/>
			<circle fill="#9FA0A0" cx="832.539" cy="433.808" r="1.631"/>
			<rect x="813.966" y="452.463" fill="#DCDDDD" width="36.744" height="1.621"/>
			<g opacity="0.25">
				<path fill="#FFFFFF" d="M889.281,437.821v-72.902c0-1.391-1.121-2.517-2.504-2.517h-76.243l60.814,77.933h15.429
					C888.16,440.335,889.281,439.209,889.281,437.821z"/>
				<path opacity="0.1" fill="#FFFFFF" d="M889.281,437.821v-72.902c0-1.391-1.121-2.517-2.504-2.517h-76.243l60.814,77.933h15.429
					C888.16,440.335,889.281,439.209,889.281,437.821z"/>
			</g>
		</g>
	</g>
	<g>
		<g>
			<g>
				<linearGradient id="SVGID_7_" gradientUnits="userSpaceOnUse" x1="677.186" y1="127.7832" x2="677.186" y2="127.5439">
					<stop  offset="0" style="stop-color:#000000;stop-opacity:0.6"/>
					<stop  offset="0.0896" style="stop-color:#000000;stop-opacity:0.5462"/>
					<stop  offset="1" style="stop-color:#000000;stop-opacity:0"/>
				</linearGradient>
				<path fill="url(#SVGID_7_)" d="M677.683,127.562l-0.995-0.018C677.088,127.874,677.416,127.846,677.683,127.562z"/>
				<linearGradient id="SVGID_8_" gradientUnits="userSpaceOnUse" x1="689.979" y1="127.7852" x2="689.979" y2="113.0898">
					<stop  offset="0" style="stop-color:#000000;stop-opacity:0.6"/>
					<stop  offset="0.0896" style="stop-color:#000000;stop-opacity:0.5462"/>
					<stop  offset="1" style="stop-color:#000000;stop-opacity:0"/>
				</linearGradient>
				<path fill="url(#SVGID_8_)" d="M701.325,113.09h-9.103h-4.485h-9.102c0,0,0.766,12.638-0.952,14.472l10.702,0.173l0.002,0.051
					l1.593-0.025l1.592,0.025l0.002-0.051l10.702-0.173C700.558,125.728,701.325,113.09,701.325,113.09z"/>
				<linearGradient id="SVGID_9_" gradientUnits="userSpaceOnUse" x1="702.7739" y1="127.7832" x2="702.7739" y2="127.5439">
					<stop  offset="0" style="stop-color:#000000;stop-opacity:0.6"/>
					<stop  offset="0.0896" style="stop-color:#000000;stop-opacity:0.5462"/>
					<stop  offset="1" style="stop-color:#000000;stop-opacity:0"/>
				</linearGradient>
				<path fill="url(#SVGID_9_)" d="M702.276,127.562c0.268,0.284,0.596,0.313,0.996-0.018L702.276,127.562z"/>
			</g>
			<path fill="#FFFFFF" d="M746.797,112.332c0,1.388-1.121,2.514-2.504,2.514H635.916c-1.383,0-2.504-1.126-2.504-2.514V39.429
				c0-1.39,1.121-2.517,2.504-2.517h108.378c1.383,0,2.504,1.126,2.504,2.517V112.332z"/>
			<g>
				<path d="M746.797,39.429c0-1.39-1.121-2.517-2.504-2.517H635.916c-1.383,0-2.504,1.126-2.504,2.517v65.151h113.386V39.429z"/>
				<path fill="#DCDDDD" d="M635.916,114.846h108.378c1.383,0,2.504-1.126,2.504-2.514v-7.751H633.412v7.751
					C633.412,113.719,634.533,114.846,635.916,114.846z"/>
			</g>
			<rect x="638.188" y="41.359" fill="#C59C62" width="104.018" height="58.764"/>
			<circle fill="#9FA0A0" cx="690.056" cy="108.317" r="1.631"/>
			<rect x="671.483" y="126.973" fill="#DCDDDD" width="36.744" height="1.621"/>
			<g opacity="0.25">
				<path fill="#FFFFFF" d="M746.797,112.332V39.429c0-1.39-1.121-2.517-2.504-2.517h-76.244l60.815,77.933h15.429
					C745.676,114.846,746.797,113.719,746.797,112.332z"/>
				<path opacity="0.1" fill="#FFFFFF" d="M746.797,112.332V39.429c0-1.39-1.121-2.517-2.504-2.517h-76.244l60.815,77.933h15.429
					C745.676,114.846,746.797,113.719,746.797,112.332z"/>
			</g>
		</g>
	</g>
	<g>
		<g>
			<g>
				<linearGradient id="SVGID_10_" gradientUnits="userSpaceOnUse" x1="180.9111" y1="127.7827" x2="180.9111" y2="127.5439">
					<stop  offset="0" style="stop-color:#000000;stop-opacity:0.6"/>
					<stop  offset="0.0896" style="stop-color:#000000;stop-opacity:0.5462"/>
					<stop  offset="1" style="stop-color:#000000;stop-opacity:0"/>
				</linearGradient>
				<path fill="url(#SVGID_10_)" d="M181.409,127.562l-0.996-0.018C180.814,127.874,181.141,127.846,181.409,127.562z"/>
				<linearGradient id="SVGID_11_" gradientUnits="userSpaceOnUse" x1="193.7051" y1="127.7852" x2="193.7051" y2="113.0898">
					<stop  offset="0" style="stop-color:#000000;stop-opacity:0.6"/>
					<stop  offset="0.0896" style="stop-color:#000000;stop-opacity:0.5462"/>
					<stop  offset="1" style="stop-color:#000000;stop-opacity:0"/>
				</linearGradient>
				<path fill="url(#SVGID_11_)" d="M205.05,113.09h-9.102h-4.485h-9.102c0,0,0.766,12.638-0.952,14.472l10.702,0.173l0.003,0.051
					l1.592-0.025l1.592,0.025l0.002-0.051l10.702-0.173C204.284,125.728,205.05,113.09,205.05,113.09z"/>
				<linearGradient id="SVGID_12_" gradientUnits="userSpaceOnUse" x1="206.499" y1="127.7827" x2="206.499" y2="127.5439">
					<stop  offset="0" style="stop-color:#000000;stop-opacity:0.6"/>
					<stop  offset="0.0896" style="stop-color:#000000;stop-opacity:0.5462"/>
					<stop  offset="1" style="stop-color:#000000;stop-opacity:0"/>
				</linearGradient>
				<path fill="url(#SVGID_12_)" d="M206.001,127.562c0.268,0.284,0.596,0.312,0.996-0.018L206.001,127.562z"/>
			</g>
			<path fill="#FFFFFF" d="M250.523,112.331c0,1.388-1.122,2.515-2.504,2.515H139.641c-1.382,0-2.504-1.126-2.504-2.515V39.429
				c0-1.39,1.122-2.517,2.504-2.517h108.378c1.382,0,2.504,1.126,2.504,2.517V112.331z"/>
			<g>
				<path d="M250.523,39.429c0-1.39-1.122-2.517-2.504-2.517H139.641c-1.382,0-2.504,1.126-2.504,2.517v65.151h113.386V39.429z"/>
				<path fill="#DCDDDD" d="M139.641,114.846h108.378c1.382,0,2.504-1.126,2.504-2.515v-7.751H137.137v7.751
					C137.137,113.719,138.259,114.846,139.641,114.846z"/>
			</g>
			<rect x="141.913" y="41.359" fill="#AF519A" width="104.018" height="58.764"/>
			<circle fill="#9FA0A0" cx="193.781" cy="108.317" r="1.631"/>
			<rect x="175.208" y="126.973" fill="#DCDDDD" width="36.744" height="1.621"/>
			<g opacity="0.25">
				<path fill="#FFFFFF" d="M250.523,112.331V39.429c0-1.39-1.122-2.517-2.504-2.517h-76.244l60.815,77.933h15.429
					C249.401,114.846,250.523,113.719,250.523,112.331z"/>
				<path opacity="0.1" fill="#FFFFFF" d="M250.523,112.331V39.429c0-1.39-1.122-2.517-2.504-2.517h-76.244l60.815,77.933h15.429
					C249.401,114.846,250.523,113.719,250.523,112.331z"/>
			</g>
		</g>
	</g>
	<g>
		<g>
			<g>
				<path fill="#EFEFEF" d="M44.271,453.052l-0.996-0.019C43.677,453.363,44.004,453.336,44.271,453.052z"/>
				<path fill="#EFEFEF" d="M67.913,438.579h-9.102h-4.485h-9.102c0,0,0.766,12.638-0.952,14.473l10.702,0.172l0.003,0.051
					l1.592-0.025l1.592,0.025l0.002-0.051l10.702-0.172C67.146,451.217,67.913,438.579,67.913,438.579z"/>
				<path fill="#EFEFEF" d="M68.864,453.052c0.268,0.284,0.596,0.312,0.996-0.019L68.864,453.052z"/>
			</g>
			<g>
				<linearGradient id="SVGID_13_" gradientUnits="userSpaceOnUse" x1="43.7734" y1="453.2725" x2="43.7734" y2="453.0332">
					<stop  offset="0" style="stop-color:#000000;stop-opacity:0.6"/>
					<stop  offset="0.0896" style="stop-color:#000000;stop-opacity:0.5462"/>
					<stop  offset="1" style="stop-color:#000000;stop-opacity:0"/>
				</linearGradient>
				<path fill="url(#SVGID_13_)" d="M44.271,453.052l-0.996-0.019C43.677,453.363,44.004,453.336,44.271,453.052z"/>
				<linearGradient id="SVGID_14_" gradientUnits="userSpaceOnUse" x1="56.5679" y1="453.2744" x2="56.5679" y2="438.5791">
					<stop  offset="0" style="stop-color:#000000;stop-opacity:0.6"/>
					<stop  offset="0.0896" style="stop-color:#000000;stop-opacity:0.5462"/>
					<stop  offset="1" style="stop-color:#000000;stop-opacity:0"/>
				</linearGradient>
				<path fill="url(#SVGID_14_)" d="M67.913,438.579h-9.102h-4.485h-9.102c0,0,0.766,12.638-0.952,14.473l10.702,0.172l0.003,0.051
					l1.592-0.025l1.592,0.025l0.002-0.051l10.702-0.172C67.146,451.217,67.913,438.579,67.913,438.579z"/>
				<linearGradient id="SVGID_15_" gradientUnits="userSpaceOnUse" x1="69.3623" y1="453.2725" x2="69.3623" y2="453.0332">
					<stop  offset="0" style="stop-color:#000000;stop-opacity:0.6"/>
					<stop  offset="0.0896" style="stop-color:#000000;stop-opacity:0.5462"/>
					<stop  offset="1" style="stop-color:#000000;stop-opacity:0"/>
				</linearGradient>
				<path fill="url(#SVGID_15_)" d="M68.864,453.052c0.268,0.284,0.596,0.312,0.996-0.019L68.864,453.052z"/>
			</g>
			<path fill="#FFFFFF" d="M113.386,437.821c0,1.388-1.122,2.514-2.504,2.514H2.504c-1.382,0-2.504-1.126-2.504-2.514v-72.902
				c0-1.391,1.122-2.517,2.504-2.517h108.378c1.382,0,2.504,1.126,2.504,2.517V437.821z"/>
			<g>
				<path d="M113.386,364.919c0-1.391-1.122-2.517-2.504-2.517H2.504c-1.382,0-2.504,1.126-2.504,2.517v65.151h113.386V364.919z"/>
				<path fill="#DCDDDD" d="M2.504,440.335h108.378c1.382,0,2.504-1.126,2.504-2.514v-7.751H0v7.751
					C0,439.209,1.122,440.335,2.504,440.335z"/>
			</g>
			<rect x="4.776" y="366.85" fill="#6290C1" width="104.018" height="58.763"/>
			<circle fill="#9FA0A0" cx="56.644" cy="433.808" r="1.631"/>
			<rect x="38.071" y="452.463" fill="#DCDDDD" width="36.744" height="1.621"/>
			<g opacity="0.25">
				<path fill="#FFFFFF" d="M113.386,437.821v-72.902c0-1.391-1.122-2.517-2.504-2.517H34.638l60.815,77.933h15.429
					C112.264,440.335,113.386,439.209,113.386,437.821z"/>
				<path opacity="0.1" fill="#FFFFFF" d="M113.386,437.821v-72.902c0-1.391-1.122-2.517-2.504-2.517H34.638l60.815,77.933h15.429
					C112.264,440.335,113.386,439.209,113.386,437.821z"/>
			</g>
		</g>
	</g>
	<path fill="#FFFFFF" d="M-696.536,85.441c0-0.303-0.018-0.602-0.022-0.904l5.085-1.564c-0.14-3.214-0.553-6.356-1.212-9.408
		l-5.308-0.215c-0.514-2.106-1.161-4.16-1.928-6.155l4.244-3.208c-1.222-2.941-2.692-5.751-4.376-8.414l-5.054,1.611
		c-1.199-1.79-2.515-3.493-3.925-5.113l2.891-4.468c-2.141-2.333-4.482-4.476-6.987-6.418l-4.199,3.243
		c-1.729-1.27-3.542-2.433-5.429-3.479l1.186-5.175c-2.789-1.453-5.711-2.683-8.751-3.655l-2.844,4.496
		c-2.049-0.596-4.147-1.076-6.294-1.413l-0.654-5.257c-2.385-0.31-4.811-0.487-7.281-0.487c-0.737,0-1.468,0.027-2.198,0.056
		l-1.133,5.189c-2.171,0.141-4.305,0.415-6.393,0.819l-2.419-4.728c-3.124,0.691-6.149,1.64-9.053,2.829l0.71,5.267
		c-1.978,0.872-3.894,1.858-5.729,2.965l-3.882-3.608c-2.674,1.709-5.204,3.626-7.542,5.752l2.475,4.718
		c-1.552,1.486-3.013,3.065-4.367,4.737l-4.892-2.067c-1.922,2.503-3.637,5.173-5.12,7.986l3.926,3.574
		c-0.949,1.92-1.774,3.909-2.478,5.956l-5.318-0.27c-0.938,2.986-1.621,6.082-2.05,9.26l4.909,2.015
		c-0.197,1.818-0.305,3.663-0.305,5.533c0,0.303,0.018,0.602,0.023,0.904l-5.085,1.563c0.14,3.215,0.552,6.356,1.212,9.408
		l5.308,0.215c0.514,2.106,1.16,4.16,1.927,6.155l-4.243,3.208c1.222,2.941,2.692,5.751,4.376,8.414l5.053-1.611
		c1.199,1.79,2.515,3.493,3.925,5.113l-2.891,4.468c2.141,2.333,4.482,4.476,6.987,6.418l4.199-3.243
		c1.73,1.27,3.542,2.433,5.429,3.479l-1.186,5.175c2.789,1.453,5.712,2.683,8.751,3.655l2.844-4.496
		c2.049,0.596,4.147,1.076,6.294,1.413l0.654,5.257c2.385,0.31,4.812,0.487,7.28,0.487c0.737,0,1.468-0.027,2.198-0.056l1.133-5.189
		c2.171-0.141,4.305-0.415,6.394-0.819l2.419,4.728c3.124-0.691,6.148-1.64,9.053-2.829l-0.711-5.268
		c1.978-0.872,3.894-1.858,5.729-2.965l3.882,3.608c2.675-1.709,5.204-3.626,7.543-5.751l-2.476-4.719
		c1.552-1.486,3.013-3.065,4.367-4.737l4.892,2.067c1.922-2.503,3.637-5.173,5.12-7.985l-3.927-3.575
		c0.949-1.92,1.774-3.909,2.478-5.956l5.318,0.27c0.939-2.985,1.622-6.082,2.05-9.259l-4.909-2.015
		C-696.644,89.157-696.536,87.312-696.536,85.441z M-747.394,130.155c-24.694,0-44.713-20.019-44.713-44.713
		c0-24.695,20.019-44.713,44.713-44.713c24.695,0,44.714,20.019,44.714,44.713C-702.68,110.136-722.699,130.155-747.394,130.155z"/>
	<path fill="#FFFFFF" d="M-793.634,38.873c0-0.257-0.015-0.511-0.02-0.768l4.321-1.329c-0.119-2.731-0.469-5.401-1.029-7.994
		l-4.511-0.183c-0.437-1.79-0.986-3.535-1.638-5.23l3.605-2.727c-1.038-2.5-2.288-4.887-3.718-7.149l-4.294,1.369
		c-1.019-1.521-2.137-2.968-3.335-4.344l2.457-3.796c-1.819-1.982-3.808-3.803-5.937-5.454l-3.568,2.756
		c-1.469-1.08-3.009-2.067-4.612-2.957l1.007-4.397c-2.37-1.235-4.853-2.28-7.436-3.106l-2.417,3.82
		c-1.741-0.506-3.523-0.915-5.348-1.2l-0.556-4.467c-2.026-0.263-4.088-0.414-6.187-0.414c-0.626,0-1.247,0.023-1.867,0.047
		l-0.963,4.409c-1.845,0.119-3.658,0.352-5.432,0.695l-2.055-4.017c-2.654,0.587-5.225,1.393-7.692,2.403l0.604,4.476
		c-1.681,0.741-3.308,1.578-4.868,2.519l-3.299-3.066c-2.272,1.453-4.421,3.082-6.409,4.888l2.104,4.009
		c-1.319,1.263-2.56,2.604-3.71,4.024l-4.157-1.756c-1.633,2.127-3.09,4.396-4.35,6.786l3.336,3.037
		c-0.806,1.631-1.507,3.321-2.105,5.061l-4.519-0.229c-0.797,2.537-1.378,5.168-1.742,7.868l4.171,1.712
		c-0.167,1.545-0.259,3.112-0.259,4.701c0,0.258,0.016,0.512,0.02,0.769l-4.32,1.329c0.119,2.731,0.469,5.401,1.03,7.994l4.51,0.182
		c0.437,1.79,0.986,3.535,1.638,5.23l-3.605,2.726c1.038,2.5,2.288,4.887,3.718,7.15l4.293-1.368
		c1.019,1.52,2.137,2.967,3.335,4.343l-2.456,3.796c1.819,1.982,3.808,3.804,5.937,5.454l3.567-2.756
		c1.47,1.08,3.01,2.067,4.613,2.957l-1.008,4.398c2.37,1.234,4.854,2.279,7.436,3.105l2.417-3.821
		c1.741,0.507,3.523,0.916,5.348,1.201l0.556,4.467c2.026,0.263,4.088,0.414,6.186,0.414c0.626,0,1.248-0.023,1.868-0.047
		l0.963-4.41c1.845-0.119,3.658-0.352,5.432-0.696l2.056,4.017c2.654-0.587,5.224-1.392,7.691-2.403l-0.604-4.476
		c1.681-0.741,3.309-1.579,4.868-2.52l3.299,3.066c2.273-1.453,4.422-3.081,6.409-4.888l-2.104-4.009
		c1.319-1.263,2.56-2.605,3.71-4.024l4.157,1.756c1.633-2.127,3.09-4.396,4.35-6.785l-3.336-3.038
		c0.806-1.631,1.507-3.321,2.105-5.061l4.519,0.229c0.797-2.536,1.378-5.167,1.742-7.867l-4.171-1.712
		C-793.726,42.03-793.634,40.462-793.634,38.873z M-836.848,76.866c-20.982,0-37.992-17.01-37.992-37.993
		s17.01-37.992,37.992-37.992c20.983,0,37.993,17.01,37.993,37.992S-815.865,76.866-836.848,76.866z"/>
	<g class="api-bank1">
		<path d="M57.356,379.271l19.286,7.715v2.571h-2.571c0,0.349-0.138,0.649-0.412,0.904
			c-0.275,0.254-0.6,0.381-0.975,0.381H42.028c-0.375,0-0.7-0.127-0.974-0.381c-0.275-0.255-0.412-0.556-0.412-0.904h-2.571v-2.571
			L57.356,379.271z M75.256,411.415c0.375,0,0.7,0.127,0.975,0.381c0.274,0.255,0.412,0.556,0.412,0.904v2.571H38.071V412.7
			c0-0.349,0.137-0.649,0.412-0.904c0.274-0.254,0.6-0.381,0.975-0.381H75.256z M43.214,392.129h5.143v15.429h2.571v-15.429h5.143
			v15.429h2.571v-15.429h5.143v15.429h2.571v-15.429H71.5v15.429h1.185c0.375,0,0.7,0.127,0.975,0.382
			c0.274,0.254,0.412,0.556,0.412,0.903v1.286H40.642v-1.286c0-0.348,0.137-0.649,0.412-0.903c0.274-0.255,0.599-0.382,0.974-0.382
			h1.186V392.129z"/>
	</g>
	<g class="api-bank2">
		<path d="M690.768,53.308l19.285,7.715v2.571h-2.57c0,0.349-0.139,0.649-0.412,0.904
			c-0.275,0.254-0.6,0.381-0.975,0.381H675.44c-0.375,0-0.699-0.127-0.975-0.381c-0.274-0.255-0.412-0.556-0.412-0.904h-2.57v-2.571
			L690.768,53.308z M708.667,85.451c0.375,0,0.7,0.127,0.975,0.381c0.274,0.255,0.411,0.556,0.411,0.904v2.571h-38.57v-2.571
			c0-0.349,0.137-0.649,0.411-0.904c0.274-0.254,0.6-0.381,0.975-0.381H708.667z M676.625,66.165h5.143v15.429h2.571V66.165h5.144
			v15.429h2.57V66.165h5.144v15.429h2.571V66.165h5.143v15.429h1.186c0.375,0,0.699,0.127,0.975,0.382
			c0.273,0.254,0.412,0.556,0.412,0.903v1.286h-33.43v-1.286c0-0.348,0.138-0.649,0.412-0.903c0.275-0.255,0.6-0.382,0.975-0.382
			h1.186V66.165z"/>
	</g>
	<g class="api-client1">
		<path d="M209.197,81.533c0,1.607-0.489,2.876-1.466,3.807c-0.978,0.931-2.277,1.396-3.897,1.396h-17.558
			c-1.621,0-2.92-0.466-3.897-1.396s-1.466-2.199-1.466-3.807c0-0.71,0.023-1.402,0.07-2.079c0.047-0.676,0.141-1.406,0.281-2.189
			c0.141-0.784,0.318-1.51,0.532-2.18s0.502-1.322,0.864-1.959c0.362-0.636,0.777-1.179,1.246-1.627
			c0.469-0.449,1.042-0.807,1.718-1.075c0.676-0.268,1.423-0.401,2.24-0.401c0.121,0,0.402,0.144,0.844,0.432
			c0.442,0.288,0.941,0.609,1.497,0.964c0.555,0.355,1.279,0.677,2.169,0.965s1.785,0.432,2.682,0.432
			c0.897,0,1.791-0.144,2.682-0.432s1.614-0.609,2.17-0.965c0.555-0.354,1.055-0.676,1.497-0.964s0.723-0.432,0.844-0.432
			c0.816,0,1.563,0.134,2.24,0.401c0.676,0.269,1.249,0.626,1.718,1.075c0.469,0.448,0.884,0.991,1.246,1.627
			c0.361,0.637,0.649,1.289,0.864,1.959c0.214,0.67,0.392,1.396,0.532,2.18c0.141,0.783,0.234,1.514,0.281,2.189
			C209.173,80.131,209.197,80.823,209.197,81.533z M200.508,58.14c1.507,1.507,2.26,3.324,2.26,5.454
			c0,2.129-0.753,3.947-2.26,5.454s-3.325,2.26-5.454,2.26c-2.13,0-3.948-0.753-5.455-2.26c-1.506-1.507-2.26-3.325-2.26-5.454
			c0-2.13,0.753-3.947,2.26-5.454c1.507-1.507,3.325-2.261,5.455-2.261C197.184,55.879,199.001,56.633,200.508,58.14z"/>
	</g>
	<g class="api-client2">
		<path d="M847.457,407.497c0,1.607-0.489,2.876-1.466,3.807c-0.979,0.931-2.277,1.396-3.898,1.396h-17.558
			c-1.62,0-2.92-0.466-3.897-1.396s-1.467-2.199-1.467-3.807c0-0.71,0.023-1.402,0.07-2.079c0.047-0.676,0.141-1.406,0.281-2.189
			c0.141-0.784,0.318-1.51,0.533-2.18c0.214-0.67,0.502-1.322,0.863-1.959c0.361-0.636,0.777-1.179,1.246-1.627
			c0.469-0.449,1.041-0.807,1.717-1.075c0.677-0.268,1.424-0.401,2.24-0.401c0.121,0,0.402,0.144,0.844,0.432
			c0.442,0.288,0.941,0.609,1.497,0.964c0.556,0.355,1.278,0.677,2.169,0.965s1.785,0.432,2.683,0.432s1.791-0.144,2.682-0.432
			s1.614-0.609,2.17-0.965c0.556-0.354,1.055-0.676,1.497-0.964c0.441-0.288,0.723-0.432,0.844-0.432
			c0.816,0,1.563,0.134,2.239,0.401c0.677,0.269,1.249,0.626,1.718,1.075c0.469,0.448,0.884,0.991,1.246,1.627
			c0.361,0.637,0.648,1.289,0.863,1.959c0.214,0.67,0.392,1.396,0.532,2.18c0.141,0.783,0.234,1.514,0.281,2.189
			C847.433,406.095,847.457,406.787,847.457,407.497z M838.768,384.104c1.507,1.507,2.26,3.324,2.26,5.454
			c0,2.129-0.753,3.947-2.26,5.454s-3.324,2.26-5.454,2.26s-3.948-0.753-5.454-2.26c-1.507-1.507-2.26-3.325-2.26-5.454
			c0-2.13,0.753-3.947,2.26-5.454c1.506-1.507,3.324-2.261,5.454-2.261S837.261,382.597,838.768,384.104z"/>
	</g>
</g>
</svg>
